<?xml version="1.0" encoding="utf-8"?>
<!-- Generator: Adobe Illustrator 23.0.0, SVG Export Plug-In . SVG Version: 6.00 Build 0)  -->
<svg version="1.1" xmlns="http://www.w3.org/2000/svg" xmlns:xlink="http://www.w3.org/1999/xlink" x="0px" y="0px"
	 viewBox="0 0 750 500" style="enable-background:new 0 0 750 500;" xml:space="preserve">
<g id="Background_Complete" style="display:none;">
	<g style="display:inline;">
		<g>
			<g>
				<g>
					<path style="fill:#F5F5F5;" d="M585.65,202.63h112.4h30.09l-23.21,16.75v32.95c0,3.8-3.08,6.88-6.88,6.88h-112.4
						c-3.8,0-6.88-3.08-6.88-6.88v-42.82C578.77,205.71,581.85,202.63,585.65,202.63z"/>
				</g>
			</g>
		</g>
		<g>
			<g>
				<g>
					<g>
						<path style="fill:#E0E0E0;" d="M591.59,225.92c0,0.14,21.49,0.25,48,0.25c26.51,0,48-0.11,48-0.25c0-0.14-21.49-0.25-48-0.25
							C613.08,225.67,591.59,225.78,591.59,225.92z"/>
					</g>
				</g>
			</g>
		</g>
		<g>
			<g>
				<g>
					<g>
						<path style="fill:#E0E0E0;" d="M591.59,238.57c0,0.14,21.49,0.25,48,0.25c26.51,0,48-0.11,48-0.25c0-0.14-21.49-0.25-48-0.25
							C613.08,238.32,591.59,238.44,591.59,238.57z"/>
					</g>
				</g>
			</g>
		</g>
	</g>
	<g style="display:inline;">
		<g>
			<g>
				<g>
					<g>
						<g>
							<rect x="362.57" y="81.03" style="fill:#E0E0E0;" width="6.67" height="22.34"/>
						</g>
					</g>
					<g>
						<g>
							<rect x="306.87" y="77.8" style="fill:#E0E0E0;" width="6.67" height="25.57"/>
						</g>
					</g>
					<g>
						<g>
							<rect x="320.8" y="72.47" style="fill:#E0E0E0;" width="6.67" height="30.9"/>
						</g>
					</g>
					<g>
						<g>
							<rect x="334.72" y="74.16" style="fill:#E0E0E0;" width="6.67" height="29.21"/>
						</g>
					</g>
					<g>
						<g>
							<rect x="348.64" y="64.28" style="fill:#E0E0E0;" width="6.67" height="39.09"/>
						</g>
					</g>
					<g>
						<g>
							<rect x="376.49" y="64.47" style="fill:#E0E0E0;" width="6.67" height="38.9"/>
						</g>
					</g>
					<g>
						<g>
							<rect x="390.42" y="77.25" style="fill:#E0E0E0;" width="6.67" height="26.12"/>
						</g>
					</g>
					<g>
						<g>
							<rect x="404.34" y="66.18" style="fill:#E0E0E0;" width="6.67" height="37.19"/>
						</g>
					</g>
					<g>
						<g>
							<rect x="418.27" y="57.81" style="fill:#E0E0E0;" width="6.67" height="45.56"/>
						</g>
					</g>
					<g>
						<g>
							<rect x="432.19" y="65.99" style="fill:#E0E0E0;" width="6.67" height="37.38"/>
						</g>
					</g>
				</g>
			</g>
		</g>
	</g>
	<g style="display:inline;">
		<g>
			<g>
				<g>
					<path style="fill:#EBEBEB;" d="M614.56,101.3l55.15-8.43c4.62,30.25-16.47,58.95-46.72,63.57
						c-30.25,4.62-58.95-16.47-63.57-46.72c-4.62-30.25,16.47-58.95,46.72-63.57c4.82-0.74,9.71-0.84,14.55-0.3L614.56,101.3z"/>
				</g>
			</g>
		</g>
		<g>
			<g>
				<g>
					<path style="fill:#E0E0E0;" d="M632.45,46.03l-6.7,42.75l41.96-7.88C667.72,80.89,661.55,56.94,632.45,46.03z"/>
				</g>
			</g>
		</g>
	</g>
	<g style="display:inline;">
		<g>
			<g>
				<path style="fill:#F5F5F5;" d="M51.48,205c-0.24-15.14,11.83-27.66,26.9-27.91c15.08-0.24,27.54,11.88,27.78,27.02
					c0.24,15.14-11.83,27.66-26.9,27.91C64.18,232.26,51.72,220.14,51.48,205z M91.89,204.34c-0.12-7.24-6.07-13.04-13.28-12.92
					c-7.21,0.12-12.98,6.1-12.86,13.34c0.12,7.24,6.07,13.04,13.28,12.92C86.24,217.57,92.01,211.58,91.89,204.34z"/>
			</g>
		</g>
		<g>
			<g>
				<path style="fill:#E0E0E0;" d="M51.48,205c-0.24-15.14,11.83-27.66,26.9-27.91l0.23,14.33c-7.21,0.12-12.98,6.1-12.86,13.34
					c0.12,7.24,6.07,13.04,13.28,12.92l0.23,14.33C64.18,232.26,51.72,220.14,51.48,205z"/>
			</g>
		</g>
		<g>
			<g>
				<path style="fill:#EBEBEB;" d="M75.93,174.88c17.64-0.28,31.71,13.4,31.99,31.12l-16.69,0.27c-0.14-8.47-6.58-13.81-15.01-13.67
					L75.93,174.88z"/>
			</g>
		</g>
	</g>
	<g style="display:inline;">
		<g>
			<g>
				<g>
					<g>
						<g>
							<g>
								<rect x="194.36" y="301.44" style="fill:#F5F5F5;" width="34.76" height="41.32"/>
							</g>
						</g>
					</g>
					<g>
						<g>
							<g>
								<rect x="38.5" y="298.74" style="fill:#E0E0E0;" width="157.07" height="46.61"/>
							</g>
						</g>
					</g>
					<g>
						<g>
							<g>
								<path style="fill:#E0E0E0;" d="M230.17,302.66h-38.82v-3.92h38.82c1.08,0,1.96,0.88,1.96,1.96l0,0
									C232.13,301.79,231.25,302.66,230.17,302.66z"/>
							</g>
						</g>
					</g>
					<g>
						<g>
							<g>
								<path style="fill:#E0E0E0;" d="M230.17,345.35h-38.82v-3.92h38.82c1.08,0,1.96,0.88,1.96,1.96l0,0
									C232.13,344.48,231.25,345.35,230.17,345.35z"/>
							</g>
						</g>
					</g>
					<g>
						<g>
							<g>
								<rect x="164.66" y="298.74" style="fill:#EBEBEB;" width="18.56" height="46.61"/>
							</g>
						</g>
					</g>
					<g>
						<g>
							<g>
								<rect x="53.43" y="299.26" style="fill:#EBEBEB;" width="18.56" height="46.61"/>
							</g>
						</g>
					</g>
					<g>
						<g>
							<g>
								<g>
									<path style="fill:#E0E0E0;" d="M229.12,308.27c0,0.11-7.52,0.21-16.8,0.21c-9.28,0-16.8-0.09-16.8-0.21
										c0-0.11,7.52-0.21,16.8-0.21C221.6,308.06,229.12,308.16,229.12,308.27z"/>
								</g>
							</g>
						</g>
					</g>
					<g>
						<g>
							<g>
								<g>
									<path style="fill:#E0E0E0;" d="M229.12,314.47c0,0.11-7.52,0.21-16.8,0.21c-9.28,0-16.8-0.09-16.8-0.21
										c0-0.11,7.52-0.21,16.8-0.21C221.6,314.26,229.12,314.35,229.12,314.47z"/>
								</g>
							</g>
						</g>
					</g>
					<g>
						<g>
							<g>
								<g>
									<path style="fill:#E0E0E0;" d="M229.12,322.1c0,0.11-7.52,0.21-16.8,0.21c-9.28,0-16.8-0.09-16.8-0.21
										c0-0.11,7.52-0.21,16.8-0.21C221.6,321.89,229.12,321.98,229.12,322.1z"/>
								</g>
							</g>
						</g>
					</g>
					<g>
						<g>
							<g>
								<g>
									<path style="fill:#E0E0E0;" d="M229.12,329.72c0,0.11-7.52,0.21-16.8,0.21c-9.28,0-16.8-0.09-16.8-0.21
										c0-0.11,7.52-0.21,16.8-0.21C221.6,329.52,229.12,329.61,229.12,329.72z"/>
								</g>
							</g>
						</g>
					</g>
					<g>
						<g>
							<g>
								<g>
									<path style="fill:#E0E0E0;" d="M229.12,337.35c0,0.11-7.52,0.21-16.8,0.21c-9.28,0-16.8-0.09-16.8-0.21
										c0-0.11,7.52-0.21,16.8-0.21C221.6,337.15,229.12,337.24,229.12,337.35z"/>
								</g>
							</g>
						</g>
					</g>
				</g>
				<g>
					<g>
						<g>
							<rect x="84.02" y="317.9" style="fill:#EBEBEB;" width="70.66" height="8.39"/>
						</g>
					</g>
				</g>
			</g>
			<g>
				<g>
					<g>
						<g>
							<rect x="193.48" y="346.27" style="fill:#FAFAFA;" width="35.29" height="25.18"/>
						</g>
					</g>
				</g>
				<g>
					<g>
						<g>
							<rect x="43.7" y="345.35" style="fill:#F5F5F5;" width="150.18" height="27"/>
						</g>
					</g>
				</g>
				<g>
					<g>
						<g>
							<path style="fill:#F5F5F5;" d="M192.78,347.18h37.93c0.5,0,0.91-0.41,0.91-0.91l0,0c0-0.5-0.41-0.91-0.91-0.91h-37.93V347.18
								z"/>
						</g>
					</g>
				</g>
				<g>
					<g>
						<g>
							<path style="fill:#F5F5F5;" d="M192.78,372.36h38.42c0.23,0,0.42-0.19,0.42-0.42v-0.99c0-0.23-0.19-0.42-0.42-0.42h-38.42
								V372.36z"/>
						</g>
					</g>
				</g>
				<g>
					<g>
						<g>
							<g>
								<path style="fill:#E0E0E0;" d="M228.77,351.05c0,0.11-7.81,0.21-17.45,0.21c-9.64,0-17.45-0.09-17.45-0.21
									c0-0.11,7.81-0.21,17.45-0.21C220.95,350.84,228.77,350.94,228.77,351.05z"/>
							</g>
						</g>
					</g>
				</g>
				<g>
					<g>
						<g>
							<g>
								<path style="fill:#E0E0E0;" d="M228.77,355.81c0,0.11-7.81,0.21-17.45,0.21c-9.64,0-17.45-0.09-17.45-0.21
									c0-0.11,7.81-0.21,17.45-0.21C220.95,355.61,228.77,355.7,228.77,355.81z"/>
							</g>
						</g>
					</g>
				</g>
				<g>
					<g>
						<g>
							<g>
								<path style="fill:#E0E0E0;" d="M228.77,360.58c0,0.11-7.81,0.21-17.45,0.21c-9.64,0-17.45-0.09-17.45-0.21
									c0-0.11,7.81-0.21,17.45-0.21C220.95,360.37,228.77,360.46,228.77,360.58z"/>
							</g>
						</g>
					</g>
				</g>
				<g>
					<g>
						<g>
							<g>
								<path style="fill:#E0E0E0;" d="M228.77,365.34c0,0.11-7.81,0.21-17.45,0.21c-9.64,0-17.45-0.09-17.45-0.21
									c0-0.11,7.81-0.21,17.45-0.21C220.95,365.13,228.77,365.22,228.77,365.34z"/>
							</g>
						</g>
					</g>
				</g>
			</g>
			<g>
				<g>
					<g>
						<g>
							<rect x="198.1" y="374.76" style="fill:#EBEBEB;" width="36.02" height="68.25"/>
						</g>
					</g>
				</g>
				<g>
					<g>
						<g>
							<rect x="29.03" y="372.36" style="fill:#E0E0E0;" width="169.07" height="74"/>
						</g>
					</g>
				</g>
				<g>
					<g>
						<g>
							<path style="fill:#E0E0E0;" d="M236.94,446.35h-43.46v-4.8h43.46c1.33,0,2.4,1.07,2.4,2.4l0,0
								C239.34,445.28,238.26,446.35,236.94,446.35z"/>
						</g>
					</g>
				</g>
				<g>
					<g>
						<g>
							<path style="fill:#E0E0E0;" d="M238.24,377.15h-44.76v-4.8h44.76c0.61,0,1.1,0.49,1.1,1.1v2.6
								C239.34,376.66,238.84,377.15,238.24,377.15z"/>
						</g>
					</g>
				</g>
				<g>
					<g>
						<g>
							<g>
								<path style="fill:#E0E0E0;" d="M234.12,383.9c0,0.11-8.06,0.21-18.01,0.21c-9.95,0-18.01-0.09-18.01-0.21
									c0-0.11,8.06-0.21,18.01-0.21C226.06,383.7,234.12,383.79,234.12,383.9z"/>
							</g>
						</g>
					</g>
				</g>
				<g>
					<g>
						<g>
							<g>
								<path style="fill:#E0E0E0;" d="M234.12,392.66c0,0.11-8.06,0.21-18.01,0.21c-9.95,0-18.01-0.09-18.01-0.21
									c0-0.11,8.06-0.21,18.01-0.21C226.06,392.45,234.12,392.54,234.12,392.66z"/>
							</g>
						</g>
					</g>
				</g>
				<g>
					<g>
						<g>
							<g>
								<path style="fill:#E0E0E0;" d="M234.12,401.41c0,0.11-8.06,0.21-18.01,0.21c-9.95,0-18.01-0.09-18.01-0.21
									c0-0.11,8.06-0.21,18.01-0.21C226.06,401.2,234.12,401.3,234.12,401.41z"/>
							</g>
						</g>
					</g>
				</g>
				<g>
					<g>
						<g>
							<g>
								<path style="fill:#E0E0E0;" d="M234.12,410.16c0,0.11-8.06,0.21-18.01,0.21c-9.95,0-18.01-0.09-18.01-0.21
									c0-0.11,8.06-0.21,18.01-0.21C226.06,409.96,234.12,410.05,234.12,410.16z"/>
							</g>
						</g>
					</g>
				</g>
				<g>
					<g>
						<g>
							<g>
								<path style="fill:#E0E0E0;" d="M234.12,418.92c0,0.11-8.06,0.21-18.01,0.21c-9.95,0-18.01-0.09-18.01-0.21
									c0-0.11,8.06-0.21,18.01-0.21C226.06,418.71,234.12,418.8,234.12,418.92z"/>
							</g>
						</g>
					</g>
				</g>
				<g>
					<g>
						<g>
							<g>
								<path style="fill:#E0E0E0;" d="M234.12,427.67c0,0.11-8.06,0.21-18.01,0.21c-9.95,0-18.01-0.09-18.01-0.21
									c0-0.11,8.06-0.21,18.01-0.21C226.06,427.46,234.12,427.56,234.12,427.67z"/>
							</g>
						</g>
					</g>
				</g>
				<g>
					<g>
						<g>
							<g>
								<path style="fill:#E0E0E0;" d="M234.12,436.42c0,0.11-8.06,0.21-18.01,0.21c-9.95,0-18.01-0.09-18.01-0.21
									c0-0.11,8.06-0.21,18.01-0.21C226.06,436.22,234.12,436.31,234.12,436.42z"/>
							</g>
						</g>
					</g>
				</g>
			</g>
		</g>
		<g>
			<g>
				<path style="fill:#EBEBEB;" d="M86.88,413.4v4.12c0,4.96-2.48,7.79-7.26,7.79c-4.78,0-7.26-2.83-7.26-7.79v-16.12
					c0-4.96,2.48-7.79,7.26-7.79c4.78,0,7.26,2.83,7.26,7.79v3.01h-4.6v-3.32c0-2.21-0.97-3.05-2.52-3.05
					c-1.55,0-2.52,0.84-2.52,3.05v16.74c0,2.21,0.97,3.01,2.52,3.01c1.55,0,2.52-0.8,2.52-3.01v-4.43H86.88z"/>
			</g>
			<g>
				<path style="fill:#EBEBEB;" d="M89.45,401.41c0-4.96,2.61-7.79,7.39-7.79s7.39,2.83,7.39,7.79v16.12c0,4.96-2.61,7.79-7.39,7.79
					s-7.39-2.83-7.39-7.79V401.41z M94.32,417.83c0,2.21,0.97,3.05,2.52,3.05c1.55,0,2.52-0.84,2.52-3.05V401.1
					c0-2.21-0.97-3.05-2.52-3.05c-1.55,0-2.52,0.84-2.52,3.05V417.83z"/>
			</g>
			<g>
				<path style="fill:#EBEBEB;" d="M107.37,393.97h4.87v26.56h8.01v4.43h-12.88V393.97z"/>
			</g>
			<g>
				<path style="fill:#EBEBEB;" d="M121.98,401.41c0-4.96,2.61-7.79,7.39-7.79c4.78,0,7.39,2.83,7.39,7.79v16.12
					c0,4.96-2.61,7.79-7.39,7.79c-4.78,0-7.39-2.83-7.39-7.79V401.41z M126.85,417.83c0,2.21,0.97,3.05,2.52,3.05
					c1.55,0,2.52-0.84,2.52-3.05V401.1c0-2.21-0.97-3.05-2.52-3.05c-1.55,0-2.52,0.84-2.52,3.05V417.83z"/>
			</g>
			<g>
				<path style="fill:#EBEBEB;" d="M144.56,393.97v23.91c0,2.21,0.97,3.01,2.52,3.01c1.55,0,2.52-0.8,2.52-3.01v-23.91h4.6v23.6
					c0,4.96-2.48,7.79-7.26,7.79c-4.78,0-7.26-2.83-7.26-7.79v-23.6H144.56z"/>
			</g>
			<g>
				<path style="fill:#EBEBEB;" d="M167.71,424.96c-0.27-0.8-0.44-1.28-0.44-3.81v-4.87c0-2.88-0.97-3.94-3.19-3.94h-1.68v12.62
					h-4.87v-30.99h7.35c5.05,0,7.22,2.35,7.22,7.13v2.43c0,3.19-1.02,5.27-3.19,6.29c2.44,1.02,3.23,3.36,3.23,6.6v4.78
					c0,1.51,0.04,2.61,0.53,3.76H167.71z M162.4,398.4v9.52h1.9c1.82,0,2.92-0.8,2.92-3.28v-3.05c0-2.21-0.75-3.19-2.48-3.19H162.4z
					"/>
			</g>
		</g>
		<g>
			<g>
				<path style="fill:#E0E0E0;" d="M85.83,355.99h-3.55l0.19-0.92h8.15l-0.2,0.92h-3.54l-1.83,9.14h-1.05L85.83,355.99z"/>
			</g>
			<g>
				<path style="fill:#E0E0E0;" d="M97.46,357.57l-5.52,8.54c-0.93,1.44-1.64,1.88-2.73,1.88c-0.7,0-1.42-0.24-1.8-0.68l0.55-0.75
					c0.33,0.34,0.76,0.55,1.34,0.55c0.65,0,1.15-0.3,1.74-1.22l0.53-0.8l-1.88-7.52h1.03l1.57,6.44l4.13-6.44H97.46z"/>
			</g>
			<g>
				<path style="fill:#E0E0E0;" d="M105.86,360.7c0,2.6-1.81,4.5-4.28,4.5c-1.44,0-2.44-0.59-2.88-1.65l-0.86,4.37h-1.02l2.06-10.35
					h0.98l-0.24,1.21c0.72-0.8,1.73-1.26,2.95-1.26C104.5,357.51,105.86,358.72,105.86,360.7z M104.83,360.76
					c0-1.48-0.91-2.36-2.49-2.36c-1.88,0-3.26,1.48-3.26,3.55c0,1.48,0.91,2.34,2.49,2.34C103.45,364.3,104.83,362.82,104.83,360.76
					z"/>
			</g>
			<g>
				<path style="fill:#E0E0E0;" d="M107.05,362c0-2.57,1.83-4.48,4.37-4.48c2.1,0,3.44,1.24,3.44,3.19c0,2.59-1.83,4.5-4.37,4.5
					C108.39,365.2,107.05,363.94,107.05,362z M113.84,360.76c0-1.48-0.91-2.36-2.49-2.36c-1.88,0-3.28,1.49-3.28,3.55
					c0,1.48,0.91,2.34,2.49,2.34C112.44,364.3,113.84,362.82,113.84,360.76z"/>
			</g>
			<g>
				<path style="fill:#E0E0E0;" d="M124.64,357.57l-1.32,6.64c-0.53,2.67-1.94,3.78-4.4,3.78c-1.42,0-2.59-0.4-3.36-1.14l0.6-0.78
					c0.6,0.62,1.62,1.01,2.83,1.01c1.91,0,2.92-0.88,3.28-2.7l0.17-0.84c-0.72,0.81-1.74,1.3-3.02,1.3c-2,0-3.34-1.16-3.34-3.05
					c0-2.43,1.8-4.28,4.31-4.28c1.39,0,2.52,0.57,2.95,1.72l0.32-1.67H124.64z M122.92,360.6c0-1.38-0.93-2.2-2.5-2.2
					c-1.91,0-3.29,1.41-3.29,3.33c0,1.38,0.92,2.2,2.5,2.2C121.53,363.94,122.92,362.53,122.92,360.6z"/>
			</g>
			<g>
				<path style="fill:#E0E0E0;" d="M131.31,357.51l-0.19,0.99c-0.1,0-0.17-0.02-0.29-0.02c-1.61,0-2.69,0.92-3.06,2.8l-0.76,3.84
					h-1.02l1.5-7.56h0.98l-0.26,1.38C128.88,357.96,129.87,357.51,131.31,357.51z"/>
			</g>
			<g>
				<path style="fill:#E0E0E0;" d="M139.98,357.57l-1.51,7.56h-0.98l0.24-1.19c-0.72,0.79-1.72,1.26-2.95,1.26
					c-1.94,0-3.29-1.21-3.29-3.2c0-2.59,1.81-4.48,4.27-4.48c1.44,0,2.44,0.59,2.87,1.64l0.32-1.58H139.98z M138.28,360.76
					c0-1.48-0.91-2.36-2.49-2.36c-1.88,0-3.28,1.49-3.28,3.55c0,1.48,0.91,2.34,2.49,2.34C136.89,364.3,138.28,362.82,138.28,360.76
					z"/>
			</g>
			<g>
				<path style="fill:#E0E0E0;" d="M149.79,360.7c0,2.6-1.81,4.5-4.28,4.5c-1.44,0-2.44-0.59-2.88-1.65l-0.86,4.37h-1.02l2.06-10.35
					h0.98l-0.24,1.21c0.72-0.8,1.73-1.26,2.95-1.26C148.42,357.51,149.79,358.72,149.79,360.7z M148.76,360.76
					c0-1.48-0.91-2.36-2.49-2.36c-1.88,0-3.26,1.48-3.26,3.55c0,1.48,0.91,2.34,2.49,2.34C147.38,364.3,148.76,362.82,148.76,360.76
					z"/>
			</g>
			<g>
				<path style="fill:#E0E0E0;" d="M158.94,359.97c0,0.27-0.03,0.56-0.09,0.86l-0.86,4.3h-1.02l0.86-4.31
					c0.04-0.24,0.07-0.47,0.07-0.69c0-1.08-0.65-1.7-1.95-1.7c-1.61,0-2.72,0.88-3.08,2.64l-0.8,4.05h-1.02l2.13-10.67h1.02
					l-0.85,4.24c0.72-0.82,1.73-1.19,2.89-1.19C157.95,357.51,158.94,358.43,158.94,359.97z"/>
			</g>
			<g>
				<path style="fill:#E0E0E0;" d="M168.5,357.57l-5.52,8.54c-0.93,1.44-1.64,1.88-2.73,1.88c-0.7,0-1.42-0.24-1.8-0.68l0.55-0.75
					c0.33,0.34,0.76,0.55,1.34,0.55c0.65,0,1.15-0.3,1.74-1.22l0.53-0.8l-1.88-7.52h1.03l1.57,6.44l4.13-6.44H168.5z"/>
			</g>
		</g>
	</g>
	<g style="display:inline;">
		<g>
			<g>
				<g>
					<path style="fill:#F5F5F5;" d="M191.28,46.79H70.29H37.89l24.99,18.03v35.47c0,4.09,3.32,7.41,7.41,7.41h120.99
						c4.09,0,7.41-3.32,7.41-7.41V54.2C198.69,50.11,195.37,46.79,191.28,46.79z"/>
				</g>
			</g>
		</g>
		<g>
			<g>
				<g>
					<g>
						<path style="fill:#E0E0E0;" d="M184.88,71.86c0,0.15-23.13,0.27-51.67,0.27c-28.54,0-51.67-0.12-51.67-0.27
							c0-0.15,23.13-0.27,51.67-0.27C161.75,71.59,184.88,71.71,184.88,71.86z"/>
					</g>
				</g>
			</g>
		</g>
		<g>
			<g>
				<g>
					<g>
						<path style="fill:#E0E0E0;" d="M184.88,85.48c0,0.15-23.13,0.27-51.67,0.27c-28.54,0-51.67-0.12-51.67-0.27
							c0-0.15,23.13-0.27,51.67-0.27C161.75,85.21,184.88,85.33,184.88,85.48z"/>
					</g>
				</g>
			</g>
		</g>
	</g>
</g>
<g id="Background_Simple" style="display:none;">
	<path style="display:inline;fill:#F5F5F5;" d="M507.03,60.92l-2.23,1.72c-18.8,14.5-28.49,38-24.4,61.17
		c0.53,2.98,1.27,5.92,2.23,8.8c6.92,20.71,25.03,37.37,46.44,42.73c12.59,3.15,26.65,2.85,37.19,10.31
		c13.73,9.72,16.23,28.54,17.58,45.19c1.34,16.65,3.9,35.48,17.67,45.14c8.63,6.05,20.03,7,30.48,5.26
		c27.67-4.6,50.38-26.78,59.99-52.83c9.61-26.05,7.46-55.21-1-81.6c-11.86-36.96-36.82-70.58-71.57-88.57
		C584.66,40.25,540,39.72,507.03,60.92z"/>
	
		<ellipse transform="matrix(0.1587 -0.9873 0.9873 0.1587 -51.1555 251.9005)" style="display:inline;fill:#F5F5F5;" cx="122.24" cy="155.97" rx="72.09" ry="72.09"/>
</g>
<g id="Table">
	<g>
		<path style="fill:#263238;" d="M723.27,446.35c0,0.14-156.83,0.26-350.25,0.26c-193.49,0-350.28-0.12-350.28-0.26
			s156.8-0.26,350.28-0.26C566.43,446.09,723.27,446.21,723.27,446.35z"/>
	</g>
</g>
<g id="Plants">
	<g>
		<g>
			<g>
				<path style="fill:#455A64;" d="M657.45,395.31c0,0-26.51-30.51-36.51-61.02c-10-30.51-5.25-27.01-5.25-27.01
					s13.5,29.64,23.76,43.95c10.25,14.32,28.51,35.32,28.51,35.32L657.45,395.31z"/>
			</g>
			<g>
				<path style="fill:#455A64;" d="M662.73,312.04c-0.86-1.49-3.13-0.72-2.88,0.98c1.62,10.72,5.11,35.86,4.97,52.18
					c-0.18,21.19,0.01,29.38,0.01,29.38h11.03c0,0-1.96-43.8-4.45-57.16C669.67,328.06,665.96,317.66,662.73,312.04z"/>
			</g>
			<g>
				<path style="fill:#455A64;" d="M668.75,391.02c0,0,6.94-14.6,9.08-32.94c0.91-7.8-0.71-18.34-3.12-32.41
					c-1.17-6.81-1.43-12-1.39-15.59c0.03-2.72,3.61-3.6,4.94-1.23c1.33,2.38,5.19,10.49,6.16,15.58c2.67,13.89,5.7,20.83,3.38,34.01
					c-2.31,13.18-10.86,33.47-10.86,33.47L668.75,391.02z"/>
			</g>
			<g>
				<path style="fill:#455A64;" d="M678.68,391.91c0,0,29.1-62.55,31.12-71.82c2.02-9.28,8.88-30.66,9.68-29.45
					c0.81,1.21,2.02,12.51-3.23,25.42c-5.24,12.91-27.64,77.76-27.64,77.76h-9.94"/>
			</g>
			<g>
				<g>
					<path style="fill:#263238;" d="M665.56,389.11c-0.01,0.02-0.29-0.18-0.82-0.56c-0.52-0.39-1.3-0.94-2.25-1.72
						c-1.94-1.52-4.66-3.84-7.82-6.9c-6.35-6.1-14.26-15.51-21.11-27.1c-6.87-11.59-11.49-22.92-14.41-31.22
						c-1.46-4.15-2.53-7.55-3.22-9.92c-0.36-1.18-0.6-2.1-0.77-2.73c-0.17-0.63-0.25-0.96-0.23-0.96c0.02-0.01,0.14,0.31,0.35,0.93
						c0.22,0.67,0.51,1.57,0.88,2.69c0.76,2.34,1.89,5.71,3.41,9.84c3.02,8.24,7.69,19.51,14.53,31.05
						c6.83,11.54,14.64,20.95,20.89,27.1c3.11,3.1,5.78,5.45,7.67,7.03c0.93,0.81,1.69,1.39,2.18,1.81
						C665.32,388.87,665.57,389.09,665.56,389.11z"/>
				</g>
			</g>
			<g>
				<g>
					<path style="fill:#263238;" d="M668.74,359.1c-0.04,0-0.13-0.65-0.26-1.84c-0.14-1.3-0.32-2.98-0.54-5.01
						c-0.46-4.23-1.18-10.07-2.21-16.48c-1.03-6.41-2.18-12.18-3.07-16.34c-0.43-2-0.79-3.66-1.06-4.93
						c-0.25-1.16-0.37-1.81-0.33-1.82c0.04-0.01,0.24,0.62,0.56,1.77c0.33,1.15,0.76,2.82,1.26,4.89c1,4.14,2.22,9.91,3.25,16.34
						c1.03,6.43,1.68,12.28,2.03,16.53c0.18,2.12,0.29,3.85,0.34,5.04C668.78,358.44,668.79,359.1,668.74,359.1z"/>
				</g>
			</g>
			<g>
				<g>
					<path style="fill:#263238;" d="M675.56,308.35c0.02-0.01,0.14,0.27,0.34,0.79c0.22,0.59,0.51,1.36,0.87,2.32
						c0.39,1.01,0.83,2.25,1.25,3.72c0.43,1.47,0.99,3.12,1.41,5.01c0.23,0.94,0.47,1.92,0.72,2.94c0.24,1.02,0.42,2.11,0.64,3.22
						c0.48,2.22,0.77,4.63,1.12,7.16c0.57,5.07,0.88,10.68,0.7,16.58c-0.24,5.89-0.95,11.47-1.88,16.49c-0.53,2.5-1,4.88-1.63,7.06
						c-0.3,1.09-0.55,2.16-0.87,3.17c-0.32,1-0.63,1.96-0.93,2.88c-0.56,1.85-1.23,3.46-1.77,4.89c-0.53,1.44-1.06,2.65-1.51,3.62
						c-0.43,0.93-0.77,1.68-1.04,2.25c-0.24,0.51-0.38,0.78-0.4,0.77c-0.02-0.01,0.08-0.29,0.29-0.82c0.24-0.58,0.54-1.35,0.93-2.3
						c0.42-0.99,0.92-2.21,1.41-3.65c0.5-1.44,1.15-3.06,1.68-4.91c0.28-0.92,0.58-1.88,0.89-2.88c0.3-1,0.54-2.07,0.83-3.16
						c0.61-2.18,1.05-4.55,1.57-7.04c0.89-5,1.59-10.55,1.82-16.4c0.18-5.86-0.11-11.44-0.64-16.49c-0.34-2.52-0.61-4.91-1.06-7.13
						c-0.21-1.11-0.37-2.19-0.6-3.21c-0.24-1.02-0.46-2-0.68-2.94c-0.39-1.88-0.92-3.54-1.32-5.01c-0.39-1.48-0.8-2.73-1.14-3.75
						c-0.32-0.98-0.57-1.76-0.76-2.36C675.62,308.65,675.54,308.36,675.56,308.35z"/>
				</g>
			</g>
			<g>
				<g>
					<path style="fill:#263238;" d="M719.15,291.89c0.01,0,0,0.1-0.02,0.28c-0.03,0.22-0.08,0.49-0.13,0.81
						c-0.13,0.71-0.29,1.77-0.57,3.11c-0.56,2.69-1.5,6.56-2.95,11.26c-1.45,4.7-3.44,10.21-5.8,16.26
						c-2.35,6.06-5.08,12.65-7.66,19.67c-2.62,7.01-4.64,13.85-6.54,20.06c-1.88,6.21-3.67,11.79-5.39,16.4
						c-1.71,4.61-3.35,8.24-4.6,10.7c-0.6,1.24-1.13,2.16-1.48,2.8c-0.16,0.29-0.3,0.52-0.41,0.72c-0.09,0.16-0.15,0.24-0.16,0.23
						c-0.01-0.01,0.03-0.09,0.1-0.26c0.1-0.2,0.21-0.45,0.35-0.74c0.31-0.65,0.81-1.59,1.37-2.85c1.17-2.48,2.75-6.12,4.4-10.74
						c1.67-4.61,3.41-10.19,5.26-16.41c1.87-6.21,3.88-13.08,6.51-20.11c2.59-7.04,5.34-13.63,7.71-19.67
						c2.38-6.03,4.41-11.51,5.91-16.18c1.51-4.67,2.5-8.51,3.14-11.18c0.32-1.33,0.52-2.38,0.69-3.08c0.08-0.32,0.14-0.58,0.19-0.8
						C719.11,291.98,719.14,291.89,719.15,291.89z"/>
				</g>
			</g>
			<g>
				<g>
					<path style="fill:#455A64;" d="M629.41,278.07c-1.83-1.82-4.88,0.08-4.13,2.56c0.77,2.51,1.94,5.75,3.66,9.4
						c4,8.5,15.75,39.01,21.26,55.77c5.5,16.75,13.25,48.01,13.25,48.01l11.75-1.91c0,0-10.75-51.36-21.25-69.87
						C645.51,307.17,637.07,285.69,629.41,278.07z"/>
				</g>
				<g>
					<g>
						<path style="fill:#263238;" d="M653.41,356.28c0.04-0.01,0.25,0.49,0.61,1.41c0.35,0.92,0.82,2.27,1.35,3.94
							c1.08,3.35,2.41,8.03,3.74,13.23c1.33,5.2,2.44,9.93,3.21,13.37c0.35,1.62,0.65,2.99,0.88,4.07c0.2,0.96,0.28,1.5,0.24,1.51
							c-0.04,0.01-0.21-0.51-0.48-1.46c-0.29-1.07-0.65-2.42-1.08-4.02c-0.9-3.53-2.08-8.18-3.39-13.32
							c-1.33-5.19-2.59-9.88-3.56-13.26c-0.46-1.59-0.85-2.93-1.16-4C653.51,356.82,653.37,356.29,653.41,356.28z"/>
					</g>
				</g>
				<g>
					<g>
						<path style="fill:#263238;" d="M669.35,392.86c-0.01,0-0.03-0.11-0.07-0.31c-0.04-0.24-0.08-0.55-0.13-0.93
							c-0.12-0.81-0.23-2.02-0.48-3.56c-0.43-3.09-1.2-7.53-2.46-12.96c-1.25-5.43-3.08-11.81-5.5-18.77
							c-2.41-6.96-5.43-14.48-8.86-22.26c-6.91-15.55-13.82-29.34-18.35-39.54c-2.29-5.09-4.07-9.24-5.24-12.13
							c-0.6-1.44-1.02-2.58-1.32-3.34c-0.13-0.36-0.24-0.64-0.33-0.88c-0.07-0.2-0.1-0.3-0.09-0.31c0.01,0,0.06,0.09,0.15,0.28
							c0.1,0.23,0.23,0.51,0.38,0.85c0.35,0.8,0.82,1.9,1.43,3.29c1.24,2.86,3.07,6.98,5.41,12.04c4.64,10.14,11.6,23.9,18.52,39.47
							c3.43,7.79,6.44,15.34,8.83,22.33c2.39,6.99,4.18,13.4,5.39,18.86c1.21,5.45,1.92,9.92,2.27,13.03
							c0.21,1.55,0.28,2.76,0.37,3.58c0.03,0.38,0.05,0.69,0.07,0.93C669.36,392.75,669.36,392.86,669.35,392.86z"/>
					</g>
				</g>
				<g>
					<g>
						<path style="fill:#263238;" d="M675.2,391.91c-0.04,0.01-0.18-0.7-0.4-1.97c-0.23-1.38-0.54-3.2-0.91-5.4
							c-0.81-4.55-2.05-10.82-3.82-17.64c-1.76-6.83-3.74-12.91-5.27-17.27c-0.75-2.1-1.37-3.84-1.84-5.16
							c-0.44-1.22-0.66-1.9-0.62-1.91c0.04-0.02,0.34,0.63,0.85,1.83c0.51,1.19,1.21,2.93,2.03,5.1c1.63,4.33,3.69,10.41,5.46,17.26
							c1.78,6.85,2.95,13.15,3.66,17.73c0.33,2.29,0.59,4.15,0.72,5.44C675.18,391.19,675.24,391.9,675.2,391.91z"/>
					</g>
				</g>
			</g>
		</g>
		<g>
			<g>
				<rect x="653.46" y="390.22" style="fill:#FF725E;" width="45.86" height="55.87"/>
			</g>
			<g style="opacity:0.3;">
				<rect x="653.46" y="390.22" width="45.86" height="55.87"/>
			</g>
			<g>
				<rect x="644" y="390.22" style="fill:#FF725E;" width="40.68" height="55.87"/>
			</g>
		</g>
	</g>
	<g>
		<g>
			<path style="fill:#455A64;" d="M88.53,370.8c-7.81-5-18.64-5.1-26.24,0.22c-7.22,5.05-10.88,14.23-10.56,23.03
				c0.32,8.8,4.58,19.55,12.56,24.18l23.4-0.09c7.47-5.5,12.53-14.35,12.88-23.62C100.91,385.24,96.34,375.8,88.53,370.8z"/>
			<g>
				<g>
					<path style="fill:#263238;" d="M77,419.07c-0.05,0-0.1-0.72-0.15-2.01c-0.04-1.44-0.09-3.28-0.16-5.49
						c-0.12-4.63-0.3-11.03-0.61-18.1c-0.31-7.07-0.69-13.46-0.98-18.08c-0.13-2.2-0.24-4.04-0.33-5.48
						c-0.07-1.3-0.08-2.01-0.03-2.02c0.05,0,0.16,0.71,0.32,1.99c0.16,1.29,0.35,3.16,0.56,5.47c0.42,4.62,0.89,11.02,1.2,18.09
						c0.31,7.07,0.41,13.48,0.39,18.12c-0.01,2.32-0.04,4.2-0.08,5.49C77.1,418.35,77.05,419.07,77,419.07z"/>
				</g>
			</g>
			<g>
				<g>
					<path style="fill:#263238;" d="M54.08,392.05c-0.02,0.21-1.29,0.27-2.84,0.14c-1.55-0.13-2.8-0.4-2.78-0.6
						c0.02-0.21,1.29-0.27,2.84-0.14C52.85,391.57,54.1,391.84,54.08,392.05z"/>
				</g>
			</g>
			<g>
				<g>
					<path style="fill:#263238;" d="M54.52,384.15c-0.08,0.19-1.18-0.12-2.45-0.68c-1.27-0.56-2.23-1.17-2.15-1.36
						c0.08-0.19,1.18,0.11,2.45,0.68C53.64,383.35,54.6,383.96,54.52,384.15z"/>
				</g>
			</g>
			<g>
				<g>
					<path style="fill:#263238;" d="M58.58,378.29c-0.11,0.17-1.34-0.41-2.62-1.47c-1.28-1.06-2.09-2.16-1.94-2.3
						c0.15-0.14,1.17,0.7,2.41,1.72C57.67,377.27,58.69,378.11,58.58,378.29z"/>
				</g>
			</g>
			<g>
				<g>
					<path style="fill:#263238;" d="M62.67,372.76c-0.19,0.08-0.78-0.84-1.32-2.06c-0.54-1.22-0.83-2.28-0.64-2.36
						c0.19-0.08,0.78,0.84,1.32,2.06C62.57,371.62,62.85,372.68,62.67,372.76z"/>
				</g>
			</g>
			<g>
				<g>
					<path style="fill:#263238;" d="M69.08,368.84c-0.18,0.09-0.82-0.9-1.24-2.26c-0.43-1.36-0.46-2.53-0.26-2.57
						c0.21-0.04,0.56,1.03,0.97,2.34C68.95,367.67,69.27,368.75,69.08,368.84z"/>
				</g>
			</g>
			<g>
				<g>
					<path style="fill:#263238;" d="M79.77,364.41c0.19,0.07,0.08,0.91-0.27,1.87c-0.34,0.97-0.78,1.69-0.97,1.63
						c-0.19-0.07-0.08-0.91,0.27-1.87C79.14,365.07,79.58,364.34,79.77,364.41z"/>
				</g>
			</g>
			<g>
				<g>
					<path style="fill:#263238;" d="M87.71,367.82c0.14,0.15-0.37,0.85-1.14,1.56c-0.77,0.71-1.5,1.16-1.64,1.01
						c-0.14-0.15,0.37-0.85,1.14-1.56C86.83,368.12,87.57,367.67,87.71,367.82z"/>
				</g>
			</g>
			<g>
				<g>
					<path style="fill:#263238;" d="M94.69,372.33c0.12,0.17-0.5,0.79-1.39,1.39c-0.88,0.6-1.69,0.94-1.81,0.77
						c-0.12-0.17,0.5-0.79,1.39-1.39C93.77,372.5,94.58,372.16,94.69,372.33z"/>
				</g>
			</g>
			<g>
				<g>
					<path style="fill:#263238;" d="M99.65,379.05c0.08,0.19-0.9,0.79-2.18,1.34c-1.29,0.55-2.4,0.84-2.48,0.65
						c-0.08-0.19,0.9-0.79,2.19-1.34C98.46,379.16,99.57,378.86,99.65,379.05z"/>
				</g>
			</g>
			<g>
				<g>
					<path style="fill:#263238;" d="M101.61,386.39c0.03,0.2-0.97,0.5-2.22,0.65c-1.25,0.16-2.29,0.11-2.31-0.09
						c-0.03-0.2,0.97-0.5,2.22-0.65C100.55,386.14,101.58,386.18,101.61,386.39z"/>
				</g>
			</g>
			<g>
				<g>
					<path style="fill:#263238;" d="M102.62,395.42c-0.08,0.19-1.14-0.09-2.37-0.62c-1.23-0.53-2.15-1.12-2.07-1.31
						c0.08-0.19,1.14,0.09,2.37,0.62C101.78,394.64,102.71,395.23,102.62,395.42z"/>
				</g>
			</g>
			<g>
				<g>
					<path style="fill:#263238;" d="M101.73,403.17c-0.07,0.19-1.41-0.13-2.81-1.05c-1.41-0.91-2.24-2.01-2.09-2.15
						c0.15-0.15,1.17,0.66,2.5,1.52C100.65,402.36,101.8,402.97,101.73,403.17z"/>
				</g>
			</g>
			<g>
				<g>
					<path style="fill:#263238;" d="M97.69,410.22c-0.12,0.16-1.19-0.47-2.21-1.57c-1.03-1.1-1.57-2.21-1.41-2.32
						c0.17-0.12,0.97,0.76,1.95,1.82C97.01,409.2,97.83,410.06,97.69,410.22z"/>
				</g>
			</g>
			<g>
				<g>
					<path style="fill:#263238;" d="M59.39,411.05c0.1,0.18-1.03,0.95-2.5,1.72c-1.48,0.77-2.75,1.24-2.85,1.06
						c-0.1-0.18,1.03-0.95,2.5-1.72C58.02,411.34,59.29,410.87,59.39,411.05z"/>
				</g>
			</g>
			<g>
				<g>
					<path style="fill:#263238;" d="M55.89,404.67c0.09,0.19-0.81,0.78-2.01,1.32c-1.19,0.54-2.23,0.83-2.32,0.64
						c-0.09-0.19,0.81-0.78,2.01-1.32C54.77,404.77,55.8,404.48,55.89,404.67z"/>
				</g>
			</g>
			<g>
				<g>
					<path style="fill:#263238;" d="M53.32,399.02c0.03,0.2-1.08,0.53-2.47,0.73c-1.39,0.2-2.55,0.19-2.58-0.01
						c-0.03-0.2,1.08-0.53,2.47-0.73C52.13,398.81,53.29,398.81,53.32,399.02z"/>
				</g>
			</g>
			<g>
				<g>
					<path style="fill:#263238;" d="M61.75,395.9c0.06,0.19-1.02,0.7-2.46,0.86c-1.44,0.17-2.6-0.09-2.59-0.29
						c0.01-0.21,1.14-0.3,2.5-0.46C60.57,395.87,61.69,395.7,61.75,395.9z"/>
				</g>
			</g>
			<g>
				<g>
					<path style="fill:#263238;" d="M68.76,388.93c0.06,0.19-0.8,0.63-1.96,0.74c-1.16,0.12-2.08-0.14-2.06-0.34
						c0.02-0.21,0.91-0.29,1.99-0.4C67.81,388.82,68.7,388.73,68.76,388.93z"/>
				</g>
			</g>
			<g>
				<g>
					<path style="fill:#263238;" d="M70.1,383.34c-0.07,0.2-1,0.05-2.08-0.32c-1.08-0.37-1.9-0.83-1.83-1.03
						c0.07-0.19,1-0.05,2.08,0.32C69.35,382.69,70.17,383.15,70.1,383.34z"/>
				</g>
			</g>
			<g>
				<g>
					<path style="fill:#263238;" d="M72.67,377.69c-0.14,0.14-0.78-0.28-1.24-1.07c-0.46-0.79-0.5-1.55-0.31-1.61
						c0.2-0.06,0.55,0.53,0.95,1.23C72.48,376.96,72.82,377.55,72.67,377.69z"/>
				</g>
			</g>
			<g>
				<g>
					<path style="fill:#263238;" d="M69.57,400.82c0.05,0.2-0.76,0.57-1.8,0.82c-0.6,0.15-1.15,0.22-1.51,0.22l-0.15-0.44
						c0.27-0.05,0.44-0.04,0.48,0.04c0.03,0.08-0.07,0.22-0.29,0.38l-0.15-0.44c0.32-0.17,0.84-0.35,1.44-0.5
						C68.64,400.67,69.52,400.62,69.57,400.82z"/>
				</g>
			</g>
			<g>
				<g>
					<path style="fill:#263238;" d="M71.02,410.73c0.08,0.19-0.95,0.78-2.29,1.3c-1.34,0.53-2.49,0.8-2.57,0.61
						c-0.08-0.19,0.95-0.77,2.29-1.3C69.79,410.81,70.94,410.54,71.02,410.73z"/>
				</g>
			</g>
			<g>
				<g>
					<path style="fill:#263238;" d="M63.1,406.33c0.07,0.2-0.62,0.61-1.53,0.91c-0.91,0.31-1.7,0.4-1.77,0.21
						c-0.07-0.2,0.62-0.6,1.53-0.91C62.24,406.23,63.03,406.13,63.1,406.33z"/>
				</g>
			</g>
			<g>
				<g>
					<path style="fill:#263238;" d="M63.7,386.17c-0.05,0.2-1.24,0.08-2.62-0.41c-1.38-0.49-2.38-1.14-2.29-1.33
						c0.09-0.19,1.2,0.15,2.54,0.62C62.67,385.53,63.75,385.96,63.7,386.17z"/>
				</g>
			</g>
			<g>
				<g>
					<path style="fill:#263238;" d="M82.86,383.98c0.11,0.17-0.56,0.82-1.5,1.44c-0.94,0.62-1.8,0.98-1.91,0.81
						c-0.11-0.17,0.56-0.82,1.5-1.44C81.89,384.17,82.75,383.8,82.86,383.98z"/>
				</g>
			</g>
			<g>
				<g>
					<path style="fill:#263238;" d="M83.91,393.92c0.04,0.2-0.66,0.52-1.58,0.71c-0.91,0.19-1.68,0.18-1.73-0.02
						c-0.04-0.2,0.66-0.52,1.58-0.71C83.09,393.71,83.86,393.72,83.91,393.92z"/>
				</g>
			</g>
			<g>
				<g>
					<path style="fill:#263238;" d="M85.12,405.11c-0.09,0.19-1.1-0.1-2.27-0.64c-1.17-0.54-2.04-1.13-1.95-1.32
						c0.09-0.19,1.1,0.1,2.27,0.64C84.33,404.33,85.2,404.92,85.12,405.11z"/>
				</g>
			</g>
			<g>
				<g>
					<path style="fill:#263238;" d="M82.55,415.99c-0.16,0.13-0.82-0.41-1.47-1.2c-0.65-0.8-1.05-1.55-0.9-1.68
						c0.16-0.13,0.82,0.41,1.47,1.2C82.31,415.11,82.71,415.86,82.55,415.99z"/>
				</g>
			</g>
			<g>
				<g>
					<path style="fill:#263238;" d="M82.03,376.65c0.13,0.16-0.31,0.71-1.06,1.08c-0.75,0.38-1.45,0.4-1.5,0.2
						c-0.06-0.2,0.49-0.53,1.16-0.87C81.31,376.73,81.9,376.49,82.03,376.65z"/>
				</g>
			</g>
			<g>
				<g>
					<path style="fill:#263238;" d="M91.42,386.68c0.07,0.19-0.8,0.67-1.99,0.83c-1.19,0.17-2.15-0.06-2.14-0.26
						c0.01-0.21,0.93-0.33,2.04-0.48C90.43,386.63,91.35,386.49,91.42,386.68z"/>
				</g>
			</g>
			<g>
				<g>
					<path style="fill:#263238;" d="M89.55,377.68c0.09,0.18-0.77,0.8-2,1.19c-1.23,0.39-2.29,0.39-2.32,0.19
						c-0.03-0.21,0.92-0.53,2.09-0.9C88.49,377.78,89.46,377.49,89.55,377.68z"/>
				</g>
			</g>
			<g>
				<g>
					<path style="fill:#263238;" d="M93.47,400.63c0,0.2-1.48,0.33-3.26,0.01c-1.78-0.32-3.12-0.96-3.05-1.15
						c0.07-0.2,1.46,0.11,3.18,0.41C92.06,400.22,93.47,400.42,93.47,400.63z"/>
				</g>
			</g>
			<g>
				<g>
					<path style="fill:#263238;" d="M89.98,413.71c-0.12,0.16-1.21-0.48-2.29-1.57c-1.09-1.09-1.72-2.18-1.56-2.3
						c0.17-0.13,1.04,0.72,2.09,1.77C89.26,412.67,90.11,413.55,89.98,413.71z"/>
				</g>
			</g>
			<g>
				<g>
					<path style="fill:#263238;" d="M74.64,367.03c0.11,0.16-2.98,1.41-6.55,5.18c-3.57,3.68-7.25,10.18-8.16,18.03
						c-0.43,3.9-0.06,7.68,0.49,11.05c0.58,3.37,1.36,6.37,2.07,8.87c0.72,2.5,1.38,4.5,1.82,5.88c0.44,1.39,0.68,2.16,0.63,2.18
						c-0.05,0.02-0.37-0.72-0.9-2.08c-0.53-1.36-1.26-3.34-2.05-5.83c-0.78-2.49-1.61-5.49-2.24-8.9c-0.6-3.4-1-7.24-0.56-11.25
						c0.93-8.03,4.78-14.65,8.52-18.31c1.86-1.86,3.61-3.1,4.89-3.82c0.62-0.39,1.15-0.6,1.5-0.78
						C74.44,367.09,74.63,367.01,74.64,367.03z"/>
				</g>
			</g>
			<g>
				<g>
					<path style="fill:#263238;" d="M84.83,418.7c-0.16-0.08,1.68-2.92,3.36-8.02c1.73-5.05,3.16-12.52,2.01-20.63
						c-0.54-4.05-1.71-7.8-3.18-11c-1.53-3.16-3.5-5.75-5.42-7.56c-1.99-1.76-3.95-2.77-5.32-3.36c-1.38-0.58-2.21-0.71-2.2-0.77
						c0-0.02,0.21-0.01,0.61,0.05c0.39,0.07,0.97,0.2,1.69,0.46c1.43,0.52,3.45,1.47,5.56,3.23c2.05,1.83,4.08,4.41,5.7,7.66
						c1.54,3.26,2.75,7.07,3.3,11.19c1.17,8.27-0.37,15.85-2.25,20.91c-0.42,1.29-0.97,2.4-1.37,3.39c-0.48,0.96-0.88,1.8-1.24,2.46
						C85.31,418.01,84.87,418.72,84.83,418.7z"/>
				</g>
			</g>
		</g>
		<g>
			<polygon style="fill:#FF725E;" points="55.89,416.93 97.07,416.93 97.32,425.17 55.89,425.17 			"/>
		</g>
		<g>
			<polygon style="fill:#FF725E;" points="59.39,421.05 61.75,446.21 91.86,446.21 94.28,421.33 			"/>
		</g>
		<g>
			<g>
				<path style="fill:#263238;" d="M97.32,425.27c0,0.21-9.27,0.37-20.71,0.37c-11.44,0-20.71-0.17-20.71-0.37s9.27-0.37,20.71-0.37
					C88.05,424.9,97.32,425.06,97.32,425.27z"/>
			</g>
		</g>
		<g>
			<g>
				<path style="fill:#263238;" d="M93.14,432.93c0.04,0.02-0.24,0.6-0.88,1.57c-0.65,0.96-1.67,2.32-3.19,3.77l-0.19,0.18
					l-0.19-0.2c-1.98-2.08-4.71-4.63-8.07-7.06l0.46-0.02c-1.15,1.01-2.35,2.06-3.58,3.14c-1.46,1.27-2.88,2.51-4.23,3.68l-0.23,0.2
					l-0.23-0.2c-2.56-2.16-4.9-4.12-6.88-5.78l0.4-0.04c-1.42,1.73-2.61,3.19-3.56,4.34c-0.86,1.02-1.35,1.56-1.4,1.53
					c-0.04-0.03,0.37-0.65,1.15-1.72c0.89-1.19,2.02-2.7,3.36-4.49l0.17-0.23l0.23,0.19c2.01,1.63,4.38,3.55,6.98,5.66l-0.47,0.01
					c1.35-1.18,2.76-2.42,4.21-3.7c1.23-1.08,2.44-2.12,3.59-3.13l0.22-0.19l0.23,0.17c3.39,2.49,6.1,5.13,8.03,7.29l-0.38-0.01
					C91.76,435.12,93.02,432.85,93.14,432.93z"/>
			</g>
		</g>
	</g>
</g>
<g id="Device">
	<g>
		<g>
			<g>
				<g>
					<g>
						<g>
							<g>
								<g>
									<g>
										<g>
											<g>
												<path style="fill:#455A64;" d="M587.95,439.31H152.03c-8.05,0-14.57-6.52-14.57-14.57v-278.4
													c0-8.05,6.52-14.57,14.57-14.57h435.92c8.05,0,14.57,6.52,14.57,14.57v278.4C602.52,432.78,596,439.31,587.95,439.31z"
													/>
											</g>
										</g>
									</g>
								</g>
								<g>
									<g>
										<g>
											<g>
												<path style="fill:#455A64;" d="M608.29,446.35H140.04c-9.83,0-17.8-7.97-17.8-17.8v-9.11h503.85v9.11
													C626.09,438.39,618.12,446.35,608.29,446.35z"/>
											</g>
										</g>
									</g>
								</g>
								<g>
									<g>
										<g>
											<g>
												<polygon style="fill:#263238;" points="324.15,416.56 330.4,426.51 418.38,426.51 424.18,416.56 												"/>
											</g>
										</g>
									</g>
								</g>
							</g>
							<g>
								<g>
									<g>
										<g>
											<path style="fill:#263238;" d="M598.52,416.56c0,0.17-103.22,0.3-230.52,0.3c-127.34,0-230.54-0.13-230.54-0.3
												c0-0.17,103.2-0.3,230.54-0.3C495.3,416.26,598.52,416.39,598.52,416.56z"/>
										</g>
									</g>
								</g>
							</g>
						</g>
					</g>
				</g>
			</g>
			<g>
				<g>
					<g>
						<g>
							<g>
								<g>
									<g>
										<g>
											<path style="fill:#EBEBEB;" d="M584.11,408.43H154.06c-1.81,0-3.27-1.47-3.27-3.27V152.73c0-1.81,1.47-3.27,3.27-3.27
												h430.06c1.81,0,3.27,1.47,3.27,3.27v252.43C587.38,406.96,585.92,408.43,584.11,408.43z"/>
										</g>
									</g>
								</g>
							</g>
						</g>
						<g>
							<g>
								<g>
									<g>
										<g>
											<polygon style="fill:#FFFFFF;" points="586.92,408.81 150.31,408.81 150.78,168.81 586.92,168.81 											"/>
										</g>
									</g>
								</g>
							</g>
						</g>
						<g>
							<g>
								<g>
									<g>
										<g>
											<path style="fill:#263238;" d="M186.59,159.46c0,1.93-1.56,3.49-3.49,3.49s-3.49-1.56-3.49-3.49
												c0-1.93,1.56-3.49,3.49-3.49S186.59,157.53,186.59,159.46z"/>
										</g>
									</g>
								</g>
							</g>
						</g>
						<g>
							<g>
								<g>
									<g>
										<g>
											<path style="fill:#263238;" d="M165.46,159.46c0,1.93-1.56,3.49-3.49,3.49c-1.93,0-3.49-1.56-3.49-3.49
												c0-1.93,1.56-3.49,3.49-3.49C163.9,155.97,165.46,157.53,165.46,159.46z"/>
										</g>
									</g>
								</g>
							</g>
						</g>
						<g>
							<g>
								<g>
									<g>
										<g>
											<path style="fill:#263238;" d="M175.6,159.46c0,1.93-1.56,3.49-3.49,3.49c-1.93,0-3.49-1.56-3.49-3.49
												c0-1.93,1.56-3.49,3.49-3.49C174.04,155.97,175.6,157.53,175.6,159.46z"/>
										</g>
									</g>
								</g>
							</g>
						</g>
					</g>
				</g>
			</g>
			<rect x="150.31" y="385.63" style="fill:#263238;" width="437.07" height="23.18"/>
			<g>
				<g>
					<path style="fill:#FFFFFF;" d="M166.83,399.9v0.74h-3.48v-0.59l1.88-1.78c0.46-0.44,0.54-0.71,0.54-0.98
						c0-0.43-0.3-0.68-0.88-0.68c-0.46,0-0.84,0.16-1.11,0.49l-0.61-0.47c0.36-0.49,1.02-0.78,1.79-0.78c1.03,0,1.69,0.52,1.69,1.36
						c0,0.46-0.13,0.88-0.78,1.49l-1.26,1.2H166.83z"/>
					<path style="fill:#FFFFFF;" d="M167.3,397.56c0-0.34,0.25-0.56,0.55-0.56c0.3,0,0.55,0.22,0.55,0.56
						c0,0.32-0.25,0.56-0.55,0.56C167.55,398.12,167.3,397.89,167.3,397.56z M167.3,400.13c0-0.34,0.25-0.56,0.55-0.56
						c0.3,0,0.55,0.22,0.55,0.56c0,0.32-0.25,0.56-0.55,0.56C167.55,400.69,167.3,400.46,167.3,400.13z"/>
					<path style="fill:#FFFFFF;" d="M170.6,395.92v4.72h-0.88v-3.99h-1v-0.74H170.6z"/>
					<path style="fill:#FFFFFF;" d="M175.75,399.57h-0.84v1.07h-0.85v-1.07h-2.59v-0.61l2.33-3.04h0.94l-2.19,2.91h1.55v-0.95h0.82
						v0.95h0.84V399.57z"/>
				</g>
				<g>
					<rect x="183.46" y="397.68" style="fill:#FFFFFF;" width="358.24" height="1.63"/>
				</g>
				<g>
					<rect x="183.19" y="395.93" style="fill:#FF725E;" width="111.95" height="4.36"/>
				</g>
				<g>
					<path style="fill:#FF725E;" d="M298.76,398.5c0,3.01-2.44,5.45-5.45,5.45c-3.01,0-5.45-2.44-5.45-5.45
						c0-3.01,2.44-5.45,5.45-5.45C296.32,393.05,298.76,395.49,298.76,398.5z"/>
				</g>
				<g>
					<path style="fill:#FFFFFF;" d="M550.72,398.45c0,0.94-0.76,1.53-1.73,1.53c-1.29,0-2.04-0.83-2.04-2.35
						c0-1.62,0.94-2.51,2.31-2.51c0.47,0,0.92,0.1,1.24,0.3l-0.32,0.66c-0.26-0.17-0.57-0.23-0.9-0.23c-0.89,0-1.45,0.55-1.45,1.63
						v0.01c0.28-0.33,0.74-0.49,1.26-0.49C550.03,397,550.72,397.57,550.72,398.45z M549.87,398.49c0-0.49-0.37-0.8-0.94-0.8
						c-0.57,0-0.96,0.34-0.96,0.81c0,0.44,0.35,0.8,0.98,0.8C549.5,399.29,549.87,398.98,549.87,398.49z"/>
					<path style="fill:#FFFFFF;" d="M551.15,396.83c0-0.34,0.25-0.56,0.55-0.56c0.3,0,0.55,0.22,0.55,0.56
						c0,0.32-0.25,0.56-0.55,0.56C551.4,397.39,551.15,397.15,551.15,396.83z M551.15,399.4c0-0.34,0.25-0.56,0.55-0.56
						c0.3,0,0.55,0.22,0.55,0.56c0,0.32-0.25,0.56-0.55,0.56C551.4,399.96,551.15,399.72,551.15,399.4z"/>
					<path style="fill:#FFFFFF;" d="M552.82,397.55c0-1.55,0.85-2.43,1.97-2.43c1.13,0,1.98,0.88,1.98,2.43
						c0,1.55-0.85,2.43-1.98,2.43C553.67,399.98,552.82,399.1,552.82,397.55z M555.88,397.55c0-1.14-0.44-1.67-1.09-1.67
						c-0.64,0-1.09,0.53-1.09,1.67c0,1.14,0.45,1.67,1.09,1.67C555.44,399.22,555.88,398.69,555.88,397.55z"/>
					<path style="fill:#FFFFFF;" d="M557.35,397.55c0-1.55,0.85-2.43,1.97-2.43c1.13,0,1.98,0.88,1.98,2.43
						c0,1.55-0.85,2.43-1.98,2.43C558.2,399.98,557.35,399.1,557.35,397.55z M560.42,397.55c0-1.14-0.44-1.67-1.09-1.67
						c-0.64,0-1.09,0.53-1.09,1.67c0,1.14,0.45,1.67,1.09,1.67C559.97,399.22,560.42,398.69,560.42,397.55z"/>
				</g>
				<g>
					<polygon style="fill:#FFFFFF;" points="568.93,397.26 567.3,397.26 567.3,392.55 571.99,392.55 571.99,394.18 568.93,394.18 
											"/>
				</g>
				<g>
					<polygon style="fill:#FFFFFF;" points="572,403.4 567.29,403.4 567.29,398.71 568.92,398.71 568.92,401.77 572,401.77 					"/>
				</g>
				<g>
					<polygon style="fill:#FFFFFF;" points="579.5,403.4 574.8,403.4 574.8,401.77 577.86,401.77 577.86,398.69 579.5,398.69 					
						"/>
				</g>
				<g>
					<polygon style="fill:#FFFFFF;" points="579.5,397.25 577.87,397.25 577.87,394.18 574.79,394.18 574.79,392.55 579.5,392.55 
											"/>
				</g>
			</g>
		</g>
		<g>
			<g>
				<polygon style="fill:#EBEBEB;" points="210.19,183.08 184.45,183.08 171.59,205.36 184.45,227.65 210.19,227.65 223.05,205.36 
									"/>
				<g>
					<g>
						<g>
							<path style="fill:#263238;" d="M186.55,209.73c-1.15-1.27-2.31-2.56-3.15-4.06c-0.84-1.5-1.34-3.24-1.06-4.94
								c0.16-0.99,0.58-1.93,0.65-2.93c0.09-1.38-0.49-2.82,0-4.11c0.76-2.02,3.48-2.33,5.13-3.72c1.28-1.09,1.91-2.85,3.32-3.76
								c1.23-0.8,2.82-0.78,4.27-0.57c1.45,0.21,2.92,0.57,4.37,0.38c1.04-0.14,2.01-0.56,3.03-0.81c1.02-0.25,2.15-0.32,3.05,0.21
								c0.9,0.53,1.41,1.81,0.82,2.67c1.69-0.78,3.83,0.54,4.29,2.33c0.46,1.8-0.46,3.74-1.89,4.93c-1.43,1.19-3.28,1.74-5.1,2.08
								c-5.16,0.97-10.77,0.42-15.22-2.37"/>
						</g>
						<g>
							<g>
								<g>
									<g>
										<g>
											<g>
												<g>
													<path style="fill:#FFBE9D;" d="M210.41,215.23c-0.17-3.19-1.07-9.73-1.94-15.64c-0.94-6.36-6.61-10.92-13.02-10.49
														l-0.64,0.04c-6.84,0.86-9.93,7.15-8.88,13.97l2.01,24.55h16.7c0,0-0.39-4.31-0.4-4.35
														C204.24,223.3,210.77,221.83,210.41,215.23z"/>
													<g>
														<g>
															<g>
																<g>
																	<g>
																		<g>
																			<g>
																				<g>
																					<g>
																						<g>
																							<path style="fill:#EB996E;" d="M204.24,223.21c0,0-4.15,0.62-8.77-1.87c0,0,2.35,4.61,8.9,3.58
																								L204.24,223.21z"/>
																						</g>
																					</g>
																				</g>
																			</g>
																		</g>
																	</g>
																</g>
															</g>
														</g>
													</g>
												</g>
											</g>
										</g>
										<g>
											<g>
												<g>
													<g>
														<g>
															<g>
																<g>
																	<g>
																		<g>
																			<g>
																				<g>
																					<g>
																						<g>
																							<g>
																								<g>
																									<g>
																										<path style="fill:#263238;" d="M206.34,205.25c0.05,0.5-0.33,0.95-0.85,1.01
																											c-0.52,0.06-0.98-0.29-1.03-0.79c-0.05-0.5,0.33-0.95,0.84-1.01
																											C205.83,204.4,206.29,204.75,206.34,205.25z"/>
																									</g>
																								</g>
																							</g>
																						</g>
																					</g>
																				</g>
																			</g>
																		</g>
																	</g>
																</g>
																<g>
																	<g>
																		<g>
																			<g>
																				<g>
																					<g>
																						<g>
																							<g>
																								<g>
																									<g>
																										<g>
																											<path style="fill:#263238;" d="M207.27,202.91c-0.11,0.13-0.86-0.35-1.87-0.28
																												c-1.01,0.06-1.72,0.63-1.84,0.51c-0.06-0.05,0.05-0.28,0.35-0.54c0.3-0.26,0.83-0.52,1.46-0.56
																												c0.63-0.04,1.18,0.16,1.5,0.38C207.2,202.63,207.32,202.85,207.27,202.91z"/>
																										</g>
																									</g>
																								</g>
																							</g>
																						</g>
																					</g>
																				</g>
																			</g>
																		</g>
																	</g>
																</g>
															</g>
															<g>
																<g>
																	<g>
																		<g>
																			<g>
																				<g>
																					<g>
																						<g>
																							<g>
																								<g>
																									<g>
																										<path style="fill:#263238;" d="M196.76,205.94c0.05,0.5-0.33,0.95-0.85,1.01
																											c-0.52,0.06-0.98-0.29-1.03-0.79c-0.05-0.5,0.33-0.95,0.84-1.01
																											C196.25,205.09,196.71,205.44,196.76,205.94z"/>
																									</g>
																								</g>
																							</g>
																						</g>
																					</g>
																				</g>
																			</g>
																		</g>
																	</g>
																</g>
																<g>
																	<g>
																		<g>
																			<g>
																				<g>
																					<g>
																						<g>
																							<g>
																								<g>
																									<g>
																										<g>
																											<path style="fill:#263238;" d="M197.31,203.77c-0.11,0.13-0.86-0.35-1.87-0.28
																												c-1.01,0.06-1.72,0.63-1.84,0.51c-0.06-0.05,0.05-0.28,0.36-0.54c0.3-0.26,0.83-0.52,1.46-0.56
																												c0.63-0.04,1.18,0.16,1.5,0.38C197.24,203.49,197.36,203.71,197.31,203.77z"/>
																										</g>
																									</g>
																								</g>
																							</g>
																						</g>
																					</g>
																				</g>
																			</g>
																		</g>
																	</g>
																</g>
															</g>
															<g>
																<g>
																	<g>
																		<g>
																			<g>
																				<g>
																					<g>
																						<g>
																							<g>
																								<g>
																									<g>
																										<path style="fill:#263238;" d="M201.49,211.04c-0.01-0.06,0.61-0.21,1.63-0.41
																											c0.26-0.04,0.5-0.11,0.53-0.29c0.05-0.19-0.08-0.46-0.22-0.76c-0.29-0.61-0.58-1.25-0.9-1.92
																											c-1.25-2.74-2.18-4.99-2.07-5.04c0.11-0.05,1.22,2.13,2.47,4.87c0.3,0.68,0.59,1.32,0.87,1.94
																											c0.12,0.29,0.31,0.61,0.2,1.01c-0.06,0.2-0.24,0.35-0.4,0.41c-0.16,0.06-0.31,0.07-0.44,0.09
																											C202.14,211.05,201.5,211.1,201.49,211.04z"/>
																									</g>
																								</g>
																							</g>
																						</g>
																					</g>
																				</g>
																			</g>
																		</g>
																	</g>
																</g>
															</g>
														</g>
													</g>
												</g>
												<g>
													<g>
														<g>
															<g>
																<g>
																	<g>
																		<g>
																			<g>
																				<g>
																					<g>
																						<path style="fill:#263238;" d="M197.3,199.77c-0.08,0.28-1.1,0.22-2.28,0.44c-1.19,0.2-2.12,0.61-2.3,0.38
																							c-0.08-0.11,0.07-0.38,0.44-0.68c0.37-0.29,0.96-0.59,1.67-0.71c0.71-0.13,1.37-0.06,1.82,0.09
																							C197.1,199.44,197.34,199.64,197.3,199.77z"/>
																					</g>
																				</g>
																			</g>
																		</g>
																	</g>
																</g>
															</g>
														</g>
													</g>
												</g>
												<g>
													<g>
														<g>
															<g>
																<g>
																	<g>
																		<g>
																			<g>
																				<g>
																					<g>
																						<path style="fill:#263238;" d="M206.7,200c-0.16,0.24-0.88,0.05-1.72,0.09c-0.84,0.02-1.54,0.26-1.72,0.03
																							c-0.08-0.11,0.02-0.35,0.31-0.59c0.29-0.24,0.79-0.45,1.37-0.47c0.58-0.02,1.09,0.16,1.4,0.37
																							C206.65,199.65,206.77,199.88,206.7,200z"/>
																					</g>
																				</g>
																			</g>
																		</g>
																	</g>
																</g>
															</g>
														</g>
													</g>
												</g>
											</g>
										</g>
									</g>
								</g>
							</g>
							<g>
								<g>
									<g>
										<g>
											<g>
												<g>
													<g>
														<g>
															<g>
																<g>
																	<g>
																		<path style="fill:#FFBE9D;" d="M186.8,207.95c-0.12-0.04-4.63-1.04-4.18,3.47c0.45,4.5,5.33,3.04,5.32,2.91
																			C187.94,214.19,186.8,207.95,186.8,207.95z"/>
																	</g>
																</g>
															</g>
														</g>
													</g>
												</g>
											</g>
										</g>
									</g>
								</g>
								<g>
									<g>
										<g>
											<g>
												<g>
													<g>
														<g>
															<g>
																<g>
																	<g>
																		<g>
																			<path style="fill:#EB996E;" d="M185.94,212.85c-0.02-0.01-0.07,0.06-0.2,0.14c-0.12,0.07-0.34,0.13-0.59,0.07
																				c-0.49-0.13-0.97-0.84-1.07-1.65c-0.05-0.41,0-0.81,0.11-1.14c0.1-0.34,0.3-0.59,0.53-0.66
																				c0.23-0.08,0.42,0.05,0.48,0.17c0.07,0.12,0.05,0.21,0.08,0.22c0.01,0.01,0.09-0.08,0.03-0.27
																				c-0.03-0.09-0.09-0.19-0.21-0.26c-0.12-0.08-0.28-0.11-0.45-0.07c-0.34,0.06-0.63,0.41-0.75,0.78
																				c-0.14,0.37-0.21,0.82-0.15,1.28c0.12,0.9,0.67,1.71,1.34,1.83c0.32,0.05,0.58-0.07,0.71-0.19
																				C185.95,212.96,185.96,212.85,185.94,212.85z"/>
																		</g>
																	</g>
																</g>
															</g>
														</g>
													</g>
												</g>
											</g>
										</g>
									</g>
								</g>
							</g>
							<g>
								<g>
									<g>
										<path style="fill:#263238;" d="M208.14,193.42c-0.31,1.79-3.94,3.43-6.96,3.35c-2.78-0.08-4.15-1.46-6.17-2.44
											c-1.28-0.62-1.28-0.62-3.01-0.34c-1.4,0.23-2.13,1.88-2.92,3.06c1.5,3.27,0.89,7.07,0.26,10.61
											c-0.07,0.39-0.16,0.81-0.46,1.08c-0.51,0.45-1.33,0.18-1.82-0.28c-0.8-0.73-1.16-1.81-1.42-2.86
											c-0.6-2.39-0.82-4.89-0.45-7.32c0.38-2.43,1.38-4.8,3.05-6.61c2.08-2.27,5.11-3.58,8.19-3.74
											c3.07-0.16,6.16,0.79,8.73,2.48C206.34,191.2,207.46,192.16,208.14,193.42"/>
									</g>
								</g>
							</g>
						</g>
					</g>
					<path style="fill:#EB996E;" d="M202.16,213.32c-0.77-0.36-1.53-0.71-2.3-1.07c-0.13-0.06-0.27-0.12-0.42-0.11
						c-0.16,0.02-0.29,0.14-0.4,0.27c-0.53,0.64-0.67,1.62-0.25,2.35c0.41,0.73,1.38,1.11,2.15,0.79c0.81-0.34,1.21-1.28,1.27-2.16
						L202.16,213.32z"/>
					<g>
						<path style="fill:#263238;" d="M201.02,215.72c0.04,0.04-0.48,0.37-1.35,0.12c-0.42-0.13-0.9-0.45-1.19-0.97
							c-0.3-0.51-0.41-1.23-0.15-1.88c0.12-0.32,0.32-0.61,0.56-0.83c0.12-0.11,0.24-0.21,0.39-0.29c0.15-0.11,0.46-0.12,0.6-0.04
							c0.52,0.29,0.88,0.54,1.23,0.77c0.67,0.45,1.07,0.75,1.03,0.82c-0.04,0.06-0.5-0.13-1.22-0.5c-0.42-0.22-0.82-0.43-1.23-0.64
							c-0.1-0.03-0.09-0.03-0.18,0.02c-0.09,0.06-0.2,0.14-0.28,0.23c-0.18,0.18-0.33,0.4-0.42,0.65c-0.2,0.5-0.13,1.05,0.09,1.47
							c0.22,0.42,0.56,0.7,0.9,0.85C200.49,215.79,201,215.63,201.02,215.72z"/>
					</g>
					<g>
						<path style="fill:#263238;" d="M200.29,205.36c-0.05,0-0.04-0.42-0.25-1.12c-0.2-0.69-0.68-1.7-1.72-2.47
							c-1.01-0.77-2.66-1.2-4.25-0.6c-1.58,0.55-2.94,2.23-2.92,4.19c-0.02,1.96,1.34,3.64,2.92,4.19c1.59,0.6,3.24,0.17,4.25-0.6
							c1.04-0.77,1.53-1.78,1.72-2.47C200.25,205.78,200.24,205.36,200.29,205.36c0.02,0,0.03,0.1,0.04,0.3
							c0.01,0.2-0.01,0.5-0.09,0.87c-0.15,0.74-0.6,1.84-1.7,2.71c-1.06,0.87-2.87,1.39-4.64,0.76c-1.76-0.58-3.3-2.45-3.28-4.64
							c-0.02-2.19,1.52-4.06,3.28-4.64c1.78-0.64,3.58-0.12,4.64,0.76c1.1,0.87,1.55,1.98,1.7,2.71c0.08,0.37,0.1,0.67,0.09,0.87
							C200.32,205.26,200.31,205.36,200.29,205.36z"/>
					</g>
					<g>
						<path style="fill:#263238;" d="M211.52,204.92c-0.05,0-0.05-0.41-0.24-1.09c-0.19-0.67-0.66-1.65-1.68-2.4
							c-0.98-0.75-2.59-1.16-4.14-0.58c-1.54,0.53-2.86,2.17-2.84,4.08c-0.02,1.91,1.31,3.54,2.84,4.08
							c1.55,0.58,3.16,0.17,4.14-0.58c1.02-0.75,1.49-1.73,1.68-2.4C211.48,205.33,211.47,204.92,211.52,204.92
							c0.02,0,0.03,0.1,0.04,0.3c0.01,0.19-0.01,0.48-0.08,0.85c-0.14,0.72-0.58,1.79-1.65,2.65c-1.03,0.85-2.79,1.36-4.53,0.74
							c-1.72-0.57-3.22-2.39-3.2-4.53c-0.02-2.14,1.48-3.96,3.2-4.53c1.73-0.62,3.49-0.11,4.53,0.74c1.07,0.85,1.51,1.93,1.65,2.65
							c0.08,0.36,0.09,0.65,0.08,0.85C211.55,204.82,211.54,204.92,211.52,204.92z"/>
					</g>
					<g>
						<path style="fill:#263238;" d="M202.36,203.89c-0.1,0.1-0.55-0.19-1.15-0.17c-0.6,0-1.03,0.31-1.14,0.21
							c-0.14-0.07,0.28-0.72,1.13-0.74C202.05,203.18,202.49,203.81,202.36,203.89z"/>
					</g>
					<g>
						<path style="fill:#263238;" d="M191.17,204.7c0.09,0.12-0.79,0.91-1.95,1.78c-1.16,0.87-2.18,1.48-2.26,1.36
							c-0.09-0.12,0.79-0.91,1.95-1.78C190.07,205.19,191.08,204.58,191.17,204.7z"/>
					</g>
				</g>
			</g>
			<g>
				<path style="fill:#263238;" d="M283.99,205.14c0,0.14-11.57,0.26-25.84,0.26c-14.27,0-25.84-0.12-25.84-0.26
					s11.57-0.26,25.84-0.26C272.42,204.88,283.99,204.99,283.99,205.14z"/>
			</g>
			<g>
				<path style="fill:#263238;" d="M260.09,210.55c0,0.14-6.14,0.26-13.72,0.26c-7.58,0-13.72-0.12-13.72-0.26s6.14-0.26,13.72-0.26
					C253.95,210.28,260.09,210.4,260.09,210.55z"/>
			</g>
		</g>
	</g>
</g>
<g id="Character">
	<g>
		<path style="fill:#FF725E;" d="M438.79,245.09c0,0,13.73,6.69,18.56,23.97s19.59,62.28,19.59,62.28s8.44,9.93,9.35,17.28
			c0.9,7.35-0.9,25.14-3.62,28.46c-2.71,3.32-6.58,2.77-6.58,2.77l-35.53-3.37l-13.99-93.68L438.79,245.09z"/>
		<path style="fill:#FF725E;" d="M321.31,243.46c0,0-25.4,7.97-31.73,14.9l20.8,96.77l-0.33,30.53h120.44
			c0-1.51,1.08-101.37,1.08-101.37l7.24-39.19l-42.81-7.54l-8.44-6.63l-47.63,2.41l-7.24,7.24L321.31,243.46z"/>
		<g style="opacity:0.3;">
			<path d="M330.96,327.41c-0.37-0.82-0.9-1.71-1.78-1.89c-1.45-0.3-2.42,1.42-2.91,2.81c-3.91,11.08-9.09,21.27-15.82,30.89
				l-0.31,14.86c7.02-5.91,13.94-12.24,18.42-20.25C333.02,345.82,334.74,335.77,330.96,327.41z"/>
		</g>
		<path style="fill:#FF725E;" d="M289.57,258.36c0,0-8.37,11.41-11.85,18.86c-3.48,7.45-32.28,70.01-34.01,76.47
			c-1.74,6.46-6.21,26.81,6.95,31.53h27.06l27.16-54.93l1.39-63.75L289.57,258.36z"/>
		<g>
			<path style="fill:#263238;" d="M279.46,345.54c-0.04,0.04-0.6-0.53-1.85-1.24c-1.24-0.7-3.18-1.51-5.68-2.06
				c-1.25-0.27-2.64-0.49-4.14-0.58c-1.5-0.09-3.11-0.07-4.75,0.31c-3.28,0.73-6.54,2.81-9.11,5.72c-2.61,2.91-4.21,6.35-5.16,9.59
				c-0.96,3.25-1.37,6.3-1.63,8.85c-0.25,2.56-0.35,4.64-0.44,6.08c-0.04,0.67-0.08,1.22-0.1,1.66c-0.03,0.38-0.05,0.58-0.07,0.58
				c-0.02,0-0.03-0.2-0.03-0.58c0-0.44,0-0.99,0.01-1.66c0.03-1.44,0.07-3.53,0.27-6.11c0.21-2.57,0.59-5.65,1.53-8.96
				c0.93-3.29,2.56-6.82,5.23-9.8c2.63-2.98,5.99-5.11,9.4-5.84c1.7-0.38,3.36-0.39,4.88-0.27c1.52,0.11,2.93,0.35,4.19,0.65
				c2.53,0.6,4.47,1.47,5.7,2.24c0.61,0.39,1.06,0.74,1.34,1C279.33,345.38,279.47,345.53,279.46,345.54z"/>
		</g>
		<g>
			<path style="fill:#263238;" d="M266.63,334.6c0-0.04,0.32-0.09,0.91-0.15c0.59-0.07,1.45-0.09,2.51-0.03
				c1.06,0.05,2.32,0.23,3.69,0.55c1.36,0.34,2.84,0.84,4.31,1.53c1.46,0.71,2.78,1.54,3.9,2.39c1.11,0.87,2.04,1.73,2.75,2.53
				c0.71,0.79,1.24,1.47,1.55,1.97c0.32,0.5,0.49,0.78,0.46,0.8c-0.08,0.06-0.81-1.03-2.28-2.52c-0.73-0.75-1.67-1.57-2.77-2.39
				c-1.12-0.81-2.41-1.61-3.84-2.3c-1.44-0.68-2.87-1.17-4.2-1.53c-1.34-0.34-2.56-0.55-3.6-0.64
				C267.94,334.59,266.63,334.7,266.63,334.6z"/>
		</g>
		<g>
			<path style="fill:#263238;" d="M291.09,331.59c-0.01,0.04-0.45,0-1.25-0.1c-0.8-0.1-1.96-0.22-3.39-0.33
				c-2.86-0.22-6.84-0.27-11.2,0.25c-4.35,0.53-8.21,1.52-10.94,2.4c-1.37,0.44-2.47,0.83-3.22,1.12c-0.75,0.28-1.18,0.42-1.19,0.39
				s0.38-0.24,1.12-0.58c0.73-0.35,1.81-0.79,3.18-1.28c2.72-0.98,6.6-2.04,11-2.57c4.39-0.52,8.42-0.41,11.29-0.1
				c1.44,0.15,2.6,0.33,3.39,0.49C290.67,331.46,291.1,331.56,291.09,331.59z"/>
		</g>
		<g>
			<path style="fill:#263238;" d="M368.18,278.14c-0.01,0.01-0.1-0.1-0.28-0.33c-0.19-0.26-0.44-0.59-0.74-0.99
				c-0.66-0.92-1.58-2.19-2.72-3.77c-2.34-3.3-5.59-7.89-9.43-13.3l0.42-0.06c-1.46,4.28-3.07,9.01-4.76,13.98l-0.11,0.31
				l-0.27-0.18c-0.18-0.11-0.37-0.24-0.56-0.36c-2.24-1.42-4.22-3.13-5.89-4.98c-1.67-1.86-3.06-3.84-4.21-5.82
				c-2.3-3.97-3.69-7.88-4.63-11.19c-0.94-3.32-1.43-6.08-1.75-7.97c-0.16-0.91-0.28-1.63-0.38-2.18c-0.05-0.25-0.1-0.43-0.13-0.56
				c-0.05-0.11-0.07-0.18-0.06-0.18c0.11-0.05,0.4,1,0.77,2.89c0.39,1.88,0.93,4.62,1.91,7.91c0.98,3.28,2.39,7.15,4.69,11.05
				c1.15,1.95,2.52,3.89,4.17,5.72c1.66,1.81,3.6,3.49,5.79,4.88c0.19,0.12,0.38,0.24,0.55,0.35l-0.38,0.14
				c1.71-4.97,3.33-9.69,4.8-13.96l0.15-0.45l0.27,0.39c3.77,5.45,6.97,10.08,9.27,13.41c1.1,1.61,1.97,2.91,2.61,3.85
				c0.28,0.42,0.5,0.76,0.68,1.03C368.11,278.01,368.19,278.13,368.18,278.14z"/>
		</g>
		<g style="opacity:0.3;">
			<path d="M399.53,324.33c-1.12,11.19,1.35,22.71,6.96,32.45c5.6,9.75,13.82,18.43,24.05,23.1c0.33-9.93-0.15-21.63,0.18-31.56
				L399.53,324.33z"/>
		</g>
		<g>
			<path style="fill:#FFBE9D;" d="M398.4,311.26c0,0-4.37,1.21-1.09,10.18c3.28,8.96,4.37,8.42,6.56,16.81
				c2.19,8.38,4.74,16.04,8.57,20.78c3.83,4.74,18.05,14.4,18.05,14.4l12.76-12.03c0,0-2.1-8.97-1.6-15.06
				c0.5-6.09,1.78-21.04,1.6-23.59c-0.18-2.55-2.92-8.75-2.92-8.75v-4.24l-6.56-20.19c0,0-3.65-1.64-4.92,4.19l-2.19-6.19
				c0,0-3.46-0.55-4.37,6.56c-0.91,7.11,0.73,16.95,0.73,16.95l-1.82,12.4l-2.73,8.38l-2.37,0.36c0,0-3.57-0.97-5.52-7.69
				C408.61,317.82,403.32,309.8,398.4,311.26z"/>
			<g>
				<path style="fill:#EB996E;" d="M438.97,342.96c-0.01,0-0.03-0.16-0.06-0.46c-0.02-0.35-0.05-0.79-0.09-1.34
					c-0.07-1.22-0.16-2.91-0.27-5.02c-0.2-4.35-0.47-10.41-0.79-17.48l0.06,0.15c-0.59-0.7-1.63-0.91-2.58-0.67
					c-0.97,0.23-1.83,0.83-2.37,1.73c-1.11,1.79-1.18,4.13-1.52,6.39c-0.69,5.11-1.35,9.97-1.95,14.41
					c-0.3,2.21-0.62,4.32-1.06,6.27c-0.42,1.95-1.01,3.73-1.58,5.32c-0.56,1.59-1.06,3.03-1.37,4.33c-0.31,1.3-0.44,2.44-0.41,3.38
					c0.04,1.88,0.59,2.84,0.5,2.86c-0.02,0.01-0.12-0.23-0.31-0.7c-0.15-0.48-0.36-1.2-0.4-2.15c-0.06-0.95,0.04-2.13,0.33-3.45
					c0.29-1.32,0.77-2.78,1.31-4.38c0.55-1.6,1.11-3.35,1.51-5.29c0.41-1.93,0.71-4.03,1-6.24c0.59-4.44,1.23-9.3,1.91-14.41
					c0.16-1.14,0.28-2.26,0.48-3.39c0.2-1.12,0.51-2.24,1.13-3.2c0.58-0.98,1.6-1.7,2.68-1.95c1.07-0.27,2.34-0.03,3.07,0.85
					l0.05,0.07l0,0.08c0.24,7.07,0.45,13.13,0.6,17.49c0.05,2.11,0.1,3.8,0.13,5.03c0.01,0.55,0.01,0.99,0.01,1.34
					C438.99,342.81,438.98,342.96,438.97,342.96z"/>
			</g>
			<g>
				<path style="fill:#EB996E;" d="M431.99,319.99c-0.03,0.01-0.23-0.39-0.54-1.14c-0.3-0.75-0.7-1.86-1.07-3.27
					c-0.37-1.4-0.72-3.11-0.92-5.02c-0.1-0.96-0.17-1.98-0.05-3.04c0.11-1.06,0.42-2.18,1.1-3.13c0.58-0.82,1.4-1.48,2.33-1.75
					l0.2-0.06l0.1,0.18c1.85,3.26,3.45,6.14,4.58,8.21c0.52,0.97,0.95,1.78,1.31,2.45c0.3,0.58,0.45,0.9,0.42,0.92
					s-0.23-0.28-0.58-0.83c-0.39-0.64-0.87-1.43-1.44-2.37c-1.21-2.03-2.87-4.87-4.74-8.12l0.3,0.12c-0.8,0.24-1.53,0.81-2.05,1.56
					c-0.61,0.86-0.91,1.88-1.02,2.88c-0.11,1.01-0.06,2,0.02,2.94c0.17,1.89,0.47,3.58,0.8,4.98c0.32,1.4,0.66,2.52,0.9,3.29
					C431.89,319.55,432.03,319.98,431.99,319.99z"/>
			</g>
			<g>
				<path style="fill:#EB996E;" d="M428.94,321.64c-0.04,0-0.08-0.41-0.12-1.16c-0.03-0.86-0.08-1.92-0.13-3.17
					c-0.09-2.68-0.17-6.38-0.23-10.47c-0.03-4.09-0.19-7.8,0.16-10.49c0.17-1.34,0.44-2.41,0.68-3.12c0.24-0.72,0.44-1.08,0.47-1.07
					c0.09,0.03-0.56,1.58-0.79,4.24c-0.25,2.65-0.04,6.35-0.01,10.44c0.06,4.09,0.08,7.79,0.08,10.47
					c-0.01,1.25-0.03,2.31-0.04,3.18C429,321.22,428.98,321.63,428.94,321.64z"/>
			</g>
			<g>
				<path style="fill:#EB996E;" d="M418.15,355.25c-0.07-0.06,0.72-1,1.71-2.71c0.5-0.85,1.01-1.91,1.48-3.11
					c0.45-1.22,0.86-2.59,1.14-4.06c0.26-1.48,0.35-2.9,0.35-4.2c-0.02-1.3-0.13-2.47-0.3-3.43c-0.33-1.94-0.75-3.1-0.66-3.13
					c0.03-0.01,0.16,0.27,0.36,0.79c0.21,0.52,0.44,1.3,0.66,2.27c0.22,0.98,0.37,2.17,0.42,3.49c0.03,1.33-0.06,2.79-0.32,4.3
					c-0.28,1.51-0.71,2.91-1.2,4.14c-0.51,1.22-1.07,2.29-1.62,3.13c-0.54,0.84-1.03,1.49-1.41,1.9
					C418.4,355.05,418.18,355.27,418.15,355.25z"/>
			</g>
			<path style="fill:#FFBE9D;" d="M440.55,348.98l11.07,3.84c0,0,10.57-5.47,17.86,0c7.29,5.47,13.62,19.88,11.62,25.71
				c0,0-5.03,6.21-8.86,7.12c-3.83,0.91-18.71-2.69-24.9-4c-6.21-1.31-16.87-8.24-16.87-8.24L440.55,348.98z"/>
			<g>
				<path style="fill:#EB996E;" d="M441.91,365.29c-0.04,0-0.08-0.35-0.12-0.98c-0.04-0.75-0.1-1.64-0.16-2.67
					c-0.12-2.26-0.27-5.38-0.32-8.84c-0.05-3.46,0.05-6.59,0.26-8.85c0.1-1.13,0.22-2.04,0.33-2.67c0.11-0.63,0.19-0.97,0.23-0.96
					c0.08,0.01-0.09,1.4-0.2,3.65c-0.11,2.25-0.15,5.37-0.1,8.82c0.06,3.38,0.12,6.44,0.16,8.84c0.01,1.13,0.01,2.05-0.01,2.68
					C441.98,364.94,441.95,365.29,441.91,365.29z"/>
			</g>
		</g>
		<g>
			<path style="fill:#263238;" d="M478.42,352.38c-0.08,0.08-1.22-1.5-3.68-3.32c-2.43-1.82-6.37-3.76-11.03-4.02
				c-4.67-0.25-8.8,1.24-11.41,2.78c-2.65,1.54-3.95,2.98-4.02,2.9c-0.02-0.02,0.29-0.39,0.91-0.99c0.63-0.6,1.6-1.4,2.92-2.22
				c2.61-1.65,6.83-3.25,11.63-2.98c4.8,0.27,8.82,2.32,11.23,4.24c1.22,0.96,2.11,1.87,2.66,2.53
				C478.18,351.97,478.45,352.37,478.42,352.38z"/>
		</g>
		<g>
			<path style="fill:#263238;" d="M477,343.15c-0.07,0.11-1.55-1.39-4.61-2.54c-3.01-1.18-7.68-1.72-12.47-0.37
				c-2.39,0.67-4.58,1.62-6.45,2.68c-1.87,1.07-3.43,2.24-4.67,3.3c-1.24,1.06-2.19,1.99-2.84,2.63c-0.65,0.65-1.01,1-1.04,0.98
				c-0.02-0.02,0.29-0.42,0.9-1.12c0.61-0.69,1.52-1.66,2.75-2.77c1.22-1.11,2.78-2.33,4.67-3.44c1.89-1.1,4.11-2.09,6.55-2.77
				c4.91-1.38,9.7-0.76,12.74,0.53c1.54,0.63,2.68,1.36,3.41,1.92c0.38,0.27,0.63,0.53,0.81,0.69
				C476.92,343.05,477.01,343.14,477,343.15z"/>
		</g>
		<g>
			<path style="fill:#263238;" d="M477.09,335.15c-0.03,0.1-1.96-0.49-5.18-0.92c-1.61-0.23-3.54-0.36-5.68-0.36
				c-2.14,0.03-4.49,0.21-6.93,0.62c-2.43,0.44-4.7,1.08-6.73,1.78c-2.01,0.73-3.78,1.51-5.21,2.28c-2.87,1.51-4.49,2.72-4.55,2.64
				c-0.02-0.03,0.37-0.34,1.11-0.89c0.36-0.28,0.82-0.6,1.37-0.94c0.55-0.34,1.17-0.76,1.89-1.13c1.42-0.81,3.2-1.63,5.22-2.4
				c2.04-0.73,4.34-1.39,6.8-1.84c2.47-0.42,4.85-0.59,7.02-0.59c2.17,0.03,4.12,0.2,5.73,0.48c0.81,0.1,1.53,0.29,2.17,0.42
				c0.64,0.13,1.18,0.28,1.61,0.41C476.62,334.96,477.1,335.12,477.09,335.15z"/>
		</g>
		<g>
			<path style="fill:#263238;" d="M392.26,237.23c0,0,0.51,0.96,0.77,2.94c0.27,1.97,0.23,4.93-0.42,8.59
				c-0.33,1.83-0.77,3.84-1.43,5.99c-0.69,2.15-1.73,4.35-2.91,6.65c-2.38,4.6-5.39,9.61-8.86,14.96l-0.41,0.63l0-0.75
				c-0.01-3.53-0.01-7.24-0.02-11.1l0.39,0.19c-2.98,2.4-6.11,4.93-9.34,7.54l0.08-0.12c-2.16,6.86-3.59,14.5-4.15,22.45
				c-0.91,12.17-0.18,23.81,0.4,34.37c0.49,10.57,0.81,20.1,1.14,28.09c0.32,8,0.61,14.46,0.85,18.93c0.13,2.21,0.23,3.94,0.3,5.14
				c0.04,0.57,0.07,1.01,0.09,1.34c0.02,0.3,0.01,0.46,0.01,0.46s-0.03-0.15-0.07-0.45c-0.03-0.32-0.08-0.77-0.14-1.33
				c-0.11-1.17-0.25-2.91-0.4-5.14c-0.3-4.47-0.65-10.93-1.01-18.93c-0.36-8-0.78-17.52-1.26-28.08
				c-0.6-10.55-1.35-22.22-0.44-34.43c0.57-7.98,2-15.66,4.19-22.56l0.02-0.07l0.06-0.05c3.23-2.6,6.37-5.12,9.35-7.52l0.39-0.31
				l0,0.5c-0.01,3.85-0.01,7.56-0.02,11.1l-0.41-0.12c6.87-10.65,12.46-19.91,13.32-27.4c0.69-3.63,0.77-6.56,0.54-8.53
				c-0.1-0.99-0.29-1.72-0.41-2.22C392.32,237.48,392.26,237.23,392.26,237.23z"/>
		</g>
		<path style="fill:#FFFFFF;" d="M374.32,366.22l-0.36-0.01c-1.45,0.04-2.74,1.36-2.74,2.81c0,1.45,1.28,2.78,2.72,2.83
			c1.45,0.05,2.82-1.19,2.91-2.63C376.96,367.77,375.76,366.36,374.32,366.22z"/>
		<g>
			<path style="fill:#FFFFFF;" d="M374.32,327.68l-0.36-0.01c-1.45,0.04-2.74,1.36-2.74,2.81c0,1.45,1.28,2.78,2.72,2.83
				c1.45,0.05,2.82-1.19,2.91-2.63C376.96,329.23,375.76,327.82,374.32,327.68z"/>
			<path style="fill:#FFFFFF;" d="M373.95,293.2c1.45,0.05,2.82-1.19,2.91-2.63c0.1-1.44-1.1-2.85-2.54-2.99l-0.36-0.01
				c-1.45,0.04-2.74,1.36-2.74,2.81C371.22,291.82,372.5,293.15,373.95,293.2z"/>
		</g>
		<g>
			<g>
				<g>
					<path style="fill:#263238;" d="M330.77,192.07c-3.51-3.88-7.04-7.81-9.6-12.37c-2.56-4.56-4.08-9.89-3.23-15.05
						c0.49-3.02,1.78-5.89,1.98-8.94c0.28-4.2-1.48-8.59,0-12.52c2.33-6.15,10.61-7.1,15.63-11.35c3.91-3.31,5.81-8.68,10.12-11.47
						c3.76-2.43,8.59-2.38,13.02-1.75c4.43,0.63,8.89,1.75,13.33,1.15c3.16-0.43,6.14-1.7,9.24-2.47c3.1-0.77,6.55-0.97,9.31,0.63
						c2.76,1.6,4.31,5.52,2.5,8.15c5.14-2.37,11.67,1.64,13.08,7.12c1.41,5.48-1.41,11.41-5.77,15.02
						c-4.36,3.62-9.99,5.3-15.55,6.35c-15.75,2.97-32.83,1.29-46.4-7.23"/>
				</g>
				<g>
					<g>
						<g>
							<g>
								<g>
									<g>
										<g>
											<g>
												<g>
													<g>
														<g>
															<g>
																<g>
																	<g>
																		<g>
																			<g>
																				<g>
																					<path style="fill:#FFBE9D;" d="M386.14,245.01c-0.77-5.96-1.4-10.93-1.44-11.55c0,0,19.92-4.48,18.82-24.62
																						c-0.53-9.73-3.26-29.7-5.93-47.73c-2.87-19.36-20.16-33.26-39.69-31.96l-1.94,0.13
																						c-20.86,2.62-30.28,21.8-27.08,42.58l11.25,69.67c0,0,4.8,15.41,15.08,18.08l12.96,18.52l2.14-7.97l9.66-8.41
																						c0,0,2.22-2.4,4.76-7.09C386.83,250.83,386.39,246.88,386.14,245.01z"/>
																				</g>
																			</g>
																		</g>
																	</g>
																</g>
															</g>
														</g>
													</g>
												</g>
											</g>
											<g>
												<g>
													<g>
														<g>
															<g>
																<g>
																	<g>
																		<g>
																			<g>
																				<g>
																					<path style="fill:#EB996E;" d="M384.71,233.17c0,0-12.65,1.89-26.74-5.7c0,0,7.17,14.07,27.13,10.91
																						L384.71,233.17z"/>
																				</g>
																			</g>
																		</g>
																	</g>
																</g>
															</g>
														</g>
													</g>
												</g>
											</g>
										</g>
									</g>
								</g>
								<g>
									<g>
										<g>
											<g>
												<g>
													<g>
														<g>
															<g>
																<g>
																	<g>
																		<g>
																			<g>
																				<g>
																					<g>
																						<g>
																							<g>
																								<path style="fill:#263238;" d="M391.12,178.42c0.16,1.51-1,2.89-2.58,3.09c-1.58,0.19-2.98-0.88-3.14-2.39
																									c-0.15-1.51,1-2.9,2.57-3.09C389.56,175.83,390.96,176.91,391.12,178.42z"/>
																							</g>
																						</g>
																					</g>
																				</g>
																			</g>
																		</g>
																	</g>
																</g>
															</g>
														</g>
														<g>
															<g>
																<g>
																	<g>
																		<g>
																			<g>
																				<g>
																					<g>
																						<g>
																							<g>
																								<g>
																									<path style="fill:#263238;" d="M393.93,171.28c-0.33,0.4-2.62-1.07-5.71-0.85
																										c-3.09,0.17-5.26,1.91-5.62,1.56c-0.18-0.16,0.14-0.86,1.08-1.64c0.93-0.78,2.54-1.59,4.47-1.71
																										c1.93-0.12,3.6,0.48,4.58,1.15C393.73,170.44,394.09,171.1,393.93,171.28z"/>
																								</g>
																							</g>
																						</g>
																					</g>
																				</g>
																			</g>
																		</g>
																	</g>
																</g>
															</g>
														</g>
													</g>
													<g>
														<g>
															<g>
																<g>
																	<g>
																		<g>
																			<g>
																				<g>
																					<g>
																						<g>
																							<g>
																								<path style="fill:#263238;" d="M361.9,180.51c0.16,1.51-1,2.89-2.58,3.09c-1.58,0.19-2.98-0.88-3.14-2.39
																									c-0.15-1.51,1-2.9,2.58-3.09C360.34,177.92,361.75,179,361.9,180.51z"/>
																							</g>
																						</g>
																					</g>
																				</g>
																			</g>
																		</g>
																	</g>
																</g>
															</g>
														</g>
														<g>
															<g>
																<g>
																	<g>
																		<g>
																			<g>
																				<g>
																					<g>
																						<g>
																							<g>
																								<g>
																									<path style="fill:#263238;" d="M363.57,173.89c-0.33,0.4-2.62-1.07-5.71-0.85
																										c-3.09,0.17-5.26,1.91-5.62,1.56c-0.18-0.16,0.14-0.86,1.08-1.64c0.92-0.78,2.54-1.59,4.46-1.71
																										c1.93-0.12,3.6,0.48,4.58,1.15C363.36,173.05,363.73,173.71,363.57,173.89z"/>
																								</g>
																							</g>
																						</g>
																					</g>
																				</g>
																			</g>
																		</g>
																	</g>
																</g>
															</g>
														</g>
													</g>
													<g>
														<g>
															<g>
																<g>
																	<g>
																		<g>
																			<g>
																				<g>
																					<g>
																						<g>
																							<g>
																								<path style="fill:#263238;" d="M376.32,196.08c-0.03-0.17,1.87-0.64,4.96-1.24
																									c0.78-0.13,1.52-0.34,1.62-0.89c0.15-0.58-0.24-1.41-0.68-2.31c-0.87-1.86-1.78-3.81-2.74-5.86
																									c-3.82-8.35-6.64-15.23-6.3-15.38c0.34-0.15,3.7,6.49,7.52,14.84c0.92,2.06,1.8,4.02,2.64,5.9
																									c0.36,0.88,0.94,1.86,0.62,3.07c-0.17,0.6-0.72,1.07-1.22,1.24c-0.5,0.19-0.94,0.23-1.33,0.28
																									C378.29,196.11,376.35,196.25,376.32,196.08z"/>
																							</g>
																						</g>
																					</g>
																				</g>
																			</g>
																		</g>
																	</g>
																</g>
															</g>
														</g>
													</g>
												</g>
											</g>
										</g>
										<g>
											<g>
												<g>
													<g>
														<g>
															<g>
																<g>
																	<g>
																		<g>
																			<g>
																				<path style="fill:#263238;" d="M363.55,161.71c-0.25,0.86-3.36,0.67-6.96,1.35c-3.61,0.61-6.47,1.87-7,1.14
																					c-0.24-0.35,0.22-1.17,1.35-2.07c1.12-0.89,2.94-1.79,5.1-2.18c2.16-0.38,4.18-0.17,5.54,0.28
																					C362.94,160.69,363.66,161.31,363.55,161.71z"/>
																			</g>
																		</g>
																	</g>
																</g>
															</g>
														</g>
													</g>
												</g>
											</g>
										</g>
										<g>
											<g>
												<g>
													<g>
														<g>
															<g>
																<g>
																	<g>
																		<g>
																			<g>
																				<path style="fill:#263238;" d="M392.19,162.4c-0.5,0.74-2.68,0.15-5.24,0.29c-2.57,0.05-4.7,0.79-5.25,0.09
																					c-0.24-0.34,0.05-1.07,0.96-1.8c0.89-0.72,2.42-1.37,4.18-1.44c1.76-0.06,3.33,0.47,4.27,1.13
																					C392.07,161.34,392.41,162.04,392.19,162.4z"/>
																			</g>
																		</g>
																	</g>
																</g>
															</g>
														</g>
													</g>
												</g>
											</g>
										</g>
									</g>
								</g>
							</g>
						</g>
					</g>
					<g>
						<g>
							<g>
								<g>
									<g>
										<g>
											<g>
												<g>
													<g>
														<g>
															<g>
																<path style="fill:#FFBE9D;" d="M331.52,186.66c-0.35-0.13-14.1-3.17-12.74,10.57c1.36,13.73,16.24,9.26,16.23,8.86
																	C334.99,205.69,331.52,186.66,331.52,186.66z"/>
															</g>
														</g>
													</g>
												</g>
											</g>
										</g>
									</g>
								</g>
							</g>
						</g>
						<g>
							<g>
								<g>
									<g>
										<g>
											<g>
												<g>
													<g>
														<g>
															<g>
																<g>
																	<path style="fill:#EB996E;" d="M328.92,201.58c-0.06-0.04-0.22,0.19-0.61,0.42c-0.38,0.22-1.04,0.41-1.78,0.21
																		c-1.5-0.39-2.95-2.57-3.26-5.04c-0.16-1.25-0.01-2.46,0.33-3.49c0.32-1.05,0.9-1.81,1.62-2.01
																		c0.71-0.24,1.27,0.15,1.48,0.52c0.22,0.37,0.16,0.65,0.24,0.66c0.04,0.03,0.27-0.26,0.11-0.82
																		c-0.08-0.27-0.28-0.57-0.63-0.81c-0.36-0.24-0.85-0.32-1.36-0.22c-1.05,0.18-1.91,1.25-2.29,2.38
																		c-0.44,1.14-0.63,2.51-0.45,3.91c0.36,2.76,2.03,5.21,4.08,5.58c0.99,0.16,1.77-0.21,2.15-0.58
																		C328.93,201.91,328.97,201.6,328.92,201.58z"/>
																</g>
															</g>
														</g>
													</g>
												</g>
											</g>
										</g>
									</g>
								</g>
							</g>
						</g>
					</g>
					<g>
						<g>
							<g>
								<path style="fill:#263238;" d="M396.58,142.35c-0.94,5.47-12.03,10.47-21.22,10.21c-8.47-0.25-12.66-4.45-18.82-7.44
									c-3.9-1.89-3.9-1.89-9.18-1.03c-4.28,0.7-6.49,5.74-8.89,9.35c4.57,9.97,2.72,21.56,0.79,32.36
									c-0.21,1.19-0.48,2.48-1.39,3.28c-1.54,1.36-4.05,0.55-5.56-0.84c-2.43-2.22-3.54-5.53-4.33-8.72
									c-1.81-7.28-2.51-14.91-1.36-22.33c1.15-7.42,4.22-14.62,9.29-20.16c6.33-6.92,15.59-10.91,24.96-11.39
									c9.37-0.48,18.78,2.42,26.62,7.56C391.12,135.57,394.52,138.52,396.58,142.35"/>
							</g>
						</g>
					</g>
				</g>
			</g>
			<path style="fill:#EB996E;" d="M378.35,203.03c-2.33-1.09-4.67-2.18-7-3.26c-0.4-0.19-0.83-0.38-1.27-0.32
				c-0.5,0.07-0.89,0.44-1.21,0.82c-1.62,1.97-2.03,4.93-0.78,7.15c1.26,2.22,4.21,3.39,6.57,2.41c2.48-1.03,3.69-3.91,3.88-6.59
				L378.35,203.03z"/>
			<g>
				<path style="fill:#263238;" d="M374.88,210.33c0.02,0.06-0.32,0.26-1.02,0.41c-0.69,0.13-1.77,0.19-3.01-0.22
					c-1.23-0.39-2.62-1.35-3.48-2.89c-0.87-1.5-1.19-3.61-0.43-5.52c0.36-0.95,0.93-1.79,1.62-2.45c0.35-0.33,0.72-0.61,1.14-0.86
					c0.22-0.12,0.49-0.24,0.81-0.26c0.31-0.02,0.59,0.06,0.81,0.16c0.46,0.2,0.75,0.42,1.09,0.62c0.33,0.2,0.64,0.4,0.95,0.59
					c0.6,0.38,1.17,0.73,1.7,1.07c2.08,1.32,3.32,2.19,3.25,2.32c-0.07,0.12-1.45-0.53-3.62-1.68c-0.55-0.3-1.14-0.62-1.77-0.96
					c-0.32-0.18-0.65-0.36-0.98-0.54c-0.33-0.18-0.7-0.41-0.99-0.52c-0.32-0.11-0.46-0.1-0.77,0.07c-0.31,0.19-0.64,0.45-0.92,0.73
					c-0.58,0.57-1.05,1.28-1.36,2.09c-0.64,1.61-0.41,3.36,0.3,4.69c0.7,1.34,1.83,2.22,2.89,2.66c1.07,0.45,2.05,0.51,2.71,0.51
					C374.48,210.32,374.85,210.26,374.88,210.33z"/>
			</g>
			<g>
				<path style="fill:#263238;" d="M372.67,178.77c-0.08,0.01,0.01-1.28-0.55-3.48c-0.55-2.15-1.99-5.32-5.23-7.78
					c-1.61-1.2-3.63-2.21-5.96-2.62c-2.31-0.39-4.93-0.32-7.41,0.63c-1.25,0.44-2.46,1.09-3.56,1.92c-1.12,0.81-2.14,1.82-2.98,2.99
					c-1.73,2.31-2.71,5.27-2.74,8.32c0.03,3.05,1,6.02,2.74,8.33c0.84,1.17,1.86,2.18,2.98,3c1.11,0.83,2.31,1.49,3.56,1.92
					c2.48,0.95,5.1,1.02,7.41,0.63c2.33-0.41,4.35-1.42,5.96-2.62c3.24-2.45,4.68-5.62,5.23-7.78
					C372.68,180.04,372.59,178.76,372.67,178.77c0.01,0,0.01,0.08,0.01,0.23c0,0.19-0.01,0.41-0.01,0.68c0,0.3-0.01,0.67-0.09,1.11
					c-0.06,0.44-0.11,0.94-0.27,1.5c-0.23,1.12-0.74,2.45-1.55,3.87c-0.82,1.41-2.01,2.89-3.65,4.15c-1.63,1.25-3.7,2.31-6.1,2.75
					c-2.38,0.42-5.08,0.36-7.65-0.6c-1.3-0.44-2.55-1.12-3.7-1.97c-1.16-0.84-2.22-1.88-3.09-3.09c-1.8-2.39-2.82-5.46-2.85-8.63
					c0.03-3.17,1.05-6.24,2.85-8.63c0.87-1.21,1.93-2.25,3.09-3.09c1.15-0.85,2.4-1.53,3.7-1.97c2.58-0.97,5.27-1.03,7.65-0.6
					c2.4,0.44,4.47,1.51,6.1,2.75c1.64,1.26,2.83,2.74,3.65,4.15c0.81,1.42,1.32,2.75,1.55,3.87c0.16,0.55,0.21,1.06,0.27,1.5
					c0.07,0.44,0.09,0.81,0.09,1.11c0,0.27,0.01,0.5,0.01,0.68C372.68,178.69,372.68,178.77,372.67,178.77z"/>
			</g>
			<g>
				<path style="fill:#263238;" d="M406.91,177.42c-0.08,0.01,0.01-1.25-0.54-3.39c-0.54-2.1-1.94-5.19-5.1-7.57
					c-1.56-1.17-3.53-2.16-5.8-2.55c-2.25-0.38-4.8-0.31-7.22,0.62c-1.22,0.42-2.39,1.06-3.47,1.87c-1.09,0.79-2.08,1.78-2.9,2.92
					c-1.69,2.25-2.64,5.13-2.67,8.11c0.03,2.98,0.98,5.86,2.66,8.11c0.82,1.14,1.81,2.12,2.9,2.92c1.08,0.81,2.25,1.45,3.47,1.87
					c2.42,0.92,4.96,1,7.22,0.62c2.27-0.4,4.24-1.39,5.8-2.55c3.16-2.39,4.56-5.47,5.09-7.57
					C406.92,178.67,406.83,177.41,406.91,177.42c0.02,0,0.02,0.31,0.01,0.89c0,0.29-0.01,0.66-0.08,1.08
					c-0.06,0.43-0.11,0.92-0.26,1.46c-0.49,2.14-1.86,5.33-5.07,7.82c-1.59,1.22-3.61,2.26-5.95,2.68
					c-2.32,0.41-4.95,0.35-7.46-0.59c-1.26-0.43-2.48-1.09-3.6-1.93c-1.13-0.82-2.16-1.83-3.01-3.01c-1.76-2.33-2.75-5.32-2.77-8.41
					c0.03-3.09,1.02-6.08,2.78-8.41c0.85-1.18,1.88-2.2,3.01-3.01c1.12-0.83,2.34-1.49,3.6-1.92c2.51-0.94,5.14-1,7.46-0.59
					c2.34,0.43,4.36,1.47,5.95,2.68c3.21,2.49,4.58,5.67,5.07,7.82c0.15,0.54,0.21,1.03,0.26,1.46c0.07,0.42,0.09,0.79,0.08,1.08
					C406.93,177.11,406.93,177.42,406.91,177.42z"/>
			</g>
			<g>
				<path style="fill:#263238;" d="M378.97,174.26c-0.06,0.06-0.39-0.22-0.99-0.51c-0.6-0.29-1.5-0.57-2.52-0.55
					c-1.01,0.01-1.91,0.33-2.5,0.64c-0.6,0.31-0.91,0.6-0.97,0.55c-0.05-0.04,0.18-0.44,0.78-0.86c0.59-0.42,1.55-0.83,2.68-0.85
					c1.12-0.02,2.1,0.35,2.71,0.75C378.76,173.83,379.01,174.22,378.97,174.26z"/>
			</g>
			<g>
				<path style="fill:#263238;" d="M344.85,176.73c0.09,0.12-2.72,2.36-6.27,5c-3.55,2.65-6.49,4.7-6.58,4.59
					c-0.09-0.12,2.72-2.36,6.27-5C341.82,178.67,344.77,176.61,344.85,176.73z"/>
			</g>
		</g>
		<g style="opacity:0.3;">
			<path d="M333.02,241.81c-1.39,13.57,3.77,27.9,14.65,36.12c0.85,0.65,1.93,1.28,2.93,0.92c0.7-0.25,1.15-0.92,1.52-1.57
				c3.1-5.37,4.14-11.3,3.25-17.44c-1.72,4.54-3.2,8.99-4.94,13.74C340.94,267.83,335.03,255.59,333.02,241.81z"/>
		</g>
		<path style="opacity:0.3;" d="M369.87,272.67l7.99-2.92l1.32,13.51c0,0,8.62-15.71,12.19-22.88c3.57-7.17,1.73-19.82,1.73-19.82
			s1.28,11.02-7.36,25.07l-6.52,10.6v-11.1L369.87,272.67z"/>
		<g style="opacity:0.3;">
			<path d="M276.95,341.33c-3.56-1.68-7.66-1.91-11.57-1.45c-4.13,0.48-8.28,1.75-11.52,4.36c-3.24,2.61-5.43,6.73-5.03,10.87
				l0.4,0.06c2.79-7.54,8.33-13.03,15.48-13.7c7.15-0.66,14.12,2.52,19.03,7.76C283.26,345.31,280.52,343.01,276.95,341.33z"/>
		</g>
		<g style="opacity:0.3;">
			<path d="M478.94,349.04c-2.68-2.89-6.44-4.64-10.32-5.32c-6.81-1.19-14.12,0.93-19.25,5.57l1.52-1.24
				c3.87-2.27,8.33-3.61,12.82-3.48c4.48,0.13,8.97,1.79,12.22,4.88c2.99,2.84,4.78,6.69,6.49,10.44
				C483.1,356.02,481.62,351.93,478.94,349.04z"/>
		</g>
		<g>
			<path style="fill:#263238;" d="M427.45,286.3c-0.03-0.01,0.1-0.4,0.36-1.09c0.31-0.79,0.69-1.76,1.14-2.91
				c0.97-2.45,2.29-5.84,3.7-9.6c1.4-3.77,2.61-7.2,3.48-9.69c0.41-1.16,0.76-2.14,1.04-2.94c0.25-0.69,0.41-1.07,0.44-1.06
				c0.03,0.01-0.06,0.41-0.25,1.12c-0.19,0.71-0.49,1.74-0.88,3c-0.78,2.52-1.94,5.98-3.34,9.75c-1.4,3.77-2.79,7.14-3.84,9.56
				c-0.53,1.21-0.97,2.18-1.29,2.85C427.68,285.95,427.48,286.32,427.45,286.3z"/>
		</g>
		<g>
			<path style="fill:#263238;" d="M301.38,287.28c-0.14,0.03-1.23-4.73-2.43-10.63c-1.2-5.9-2.06-10.7-1.92-10.73
				c0.14-0.03,1.23,4.73,2.43,10.63C300.66,282.45,301.52,287.25,301.38,287.28z"/>
		</g>
		<g>
			<g>
				<path style="fill:#FFBE9D;" d="M299.49,346.77c0.32,0.16-3.66-31.16-3.66-31.16s2.51-23.77,3.92-24.87l0.04-8.39
					c0,0,3.89-2.36,4.93,1.45c0,0,3.45-2.99,4.05,4.13c0.6,7.13,0.73,14.41,0.73,14.41l7.67,19.18l1.26,0.64
					c0,0,1.65-15.03,2.61-17.24c0.96-2.21,1.62-7.59,5.25-6.78c3.64,0.81,3.94,3.82,3.29,8.72c-0.65,4.9-1.47,9.96-1.16,13.13
					c0.3,3.17,1.74,10.14,1.3,15.67c-0.44,5.54-3.47,11.38-6.66,15.48c-3.18,4.1-9.26,12.58-12.57,15.14
					C309.33,367.18,299.49,346.77,299.49,346.77z"/>
				<g>
					<path style="fill:#EB996E;" d="M303.37,321.28c-0.04,0-0.03-0.48,0.02-1.34c0.07-0.96,0.15-2.18,0.25-3.64
						c0.23-3.07,0.59-7.31,1.02-11.99c0.22-2.33,0.43-4.56,0.62-6.59c0.1-1.01,0.16-1.96,0.03-2.83c-0.12-0.87-0.46-1.62-0.96-2.16
						c-1.01-1.1-2.32-1.38-3.13-1.37c-0.85-0.01-1.29,0.22-1.31,0.17c-0.01-0.02,0.1-0.07,0.31-0.16c0.22-0.08,0.55-0.18,0.99-0.21
						c0.86-0.06,2.26,0.16,3.41,1.33c0.57,0.58,0.97,1.42,1.11,2.34c0.16,0.93,0.1,1.92,0.02,2.94c-0.18,2.04-0.38,4.26-0.58,6.6
						c-0.43,4.68-0.85,8.91-1.17,11.97c-0.17,1.45-0.31,2.67-0.42,3.62C303.48,320.81,303.4,321.28,303.37,321.28z"/>
				</g>
				<g>
					<path style="fill:#EB996E;" d="M307.49,308.47c0.08,0.06-0.78,0.81-1.36,2.47c-0.62,1.63-0.84,4.09-1.28,6.76
						c-0.41,2.68-0.82,5.1-1.13,6.84c-0.32,1.75-0.55,2.82-0.62,2.81c-0.07-0.01,0.03-1.11,0.26-2.87c0.22-1.76,0.57-4.19,0.98-6.87
						c0.43-2.66,0.71-5.13,1.45-6.82c0.35-0.84,0.77-1.45,1.11-1.83C307.23,308.6,307.47,308.45,307.49,308.47z"/>
				</g>
				<g>
					<path style="fill:#EB996E;" d="M304.67,283.39c0.04-0.01,0.13,0.34,0.27,0.99c0.14,0.64,0.31,1.57,0.5,2.73
						c0.38,2.31,0.8,5.52,1.07,9.09c0.26,3.57,0.32,6.81,0.28,9.15c-0.02,1.17-0.05,2.12-0.1,2.77c-0.04,0.65-0.08,1.01-0.12,1.01
						c-0.08,0-0.09-1.45-0.15-3.78c-0.06-2.34-0.17-5.56-0.43-9.11c-0.26-3.55-0.62-6.76-0.91-9.08
						C304.79,284.83,304.6,283.4,304.67,283.39z"/>
				</g>
				<g>
					<path style="fill:#EB996E;" d="M326.8,312.75c0.08,0.12-1.12,0.67-2.58,0.22c-1.47-0.44-2.15-1.57-2.02-1.62
						c0.12-0.1,0.88,0.75,2.17,1.13C325.65,312.88,326.76,312.6,326.8,312.75z"/>
				</g>
				<path style="fill:#FFBE9D;" d="M299.92,342.87l-20.27,8.52h-12.08c0,0-11.94,3.73-13.78,14.92c-1.84,11.2-2.1,16.96,3.15,18.34
					c5.25,1.38,20.08,1.54,27.43-0.9c7.35-2.44,26.61-17.98,26.61-17.98l1.86-11.24L299.92,342.87z"/>
			</g>
			<g>
				<path style="fill:#EB996E;" d="M304.67,355.25c-0.03,0.02-0.23-0.16-0.58-0.53c-0.36-0.35-0.8-0.93-1.32-1.67
					c-1-1.5-2.1-3.77-2.83-6.41c-0.76-2.64-1.08-5.11-1.25-6.89c-0.15-1.78-0.15-2.89-0.08-2.9c0.08-0.01,0.2,1.09,0.44,2.85
					c0.26,1.76,0.64,4.19,1.38,6.79c0.72,2.61,1.74,4.84,2.64,6.36C304,354.36,304.74,355.18,304.67,355.25z"/>
			</g>
		</g>
		<g>
			<path style="fill:#EB996E;" d="M313.5,358.8c-0.11-0.04,0.8-1.58,1.15-4.35c0.17-1.37,0.15-3.04-0.24-4.83
				c-0.39-1.79-1.24-3.63-2.48-5.35c-1.23-1.73-2.62-3.23-3.78-4.68c-1.18-1.45-2.12-2.86-2.74-4.14c-0.62-1.28-0.91-2.41-1.02-3.2
				c-0.1-0.79-0.06-1.23-0.03-1.23c0.1-0.02,0.07,1.79,1.38,4.26c0.64,1.23,1.6,2.59,2.78,4c1.18,1.42,2.58,2.92,3.84,4.68
				c1.27,1.75,2.16,3.69,2.53,5.54c0.38,1.85,0.35,3.58,0.13,4.98c-0.22,1.41-0.61,2.5-0.93,3.22c-0.15,0.36-0.3,0.63-0.41,0.81
				C313.57,358.72,313.51,358.81,313.5,358.8z"/>
		</g>
		<g>
			<g>
				<path style="fill:#FFFFFF;" d="M282.25,310c-0.13,0.07-2.34-3.96-4.94-8.99c-2.6-5.03-4.6-9.16-4.48-9.23
					c0.13-0.07,2.34,3.96,4.94,8.99C280.37,305.8,282.38,309.93,282.25,310z"/>
			</g>
			<g>
				<path style="fill:#FFFFFF;" d="M315.03,273.51c-0.13-0.06,1.24-3.41,3.05-7.49c1.82-4.08,3.4-7.34,3.53-7.28
					c0.13,0.06-1.24,3.41-3.05,7.49C316.74,270.31,315.16,273.57,315.03,273.51z"/>
			</g>
			<g>
				<path style="fill:#FFFFFF;" d="M347.13,297.19c-0.11,0.09-2.17-2.21-4.59-5.14c-2.43-2.93-4.3-5.38-4.19-5.47
					c0.11-0.09,2.17,2.21,4.59,5.14C345.36,294.65,347.24,297.1,347.13,297.19z"/>
			</g>
			<g>
				<path style="fill:#FFFFFF;" d="M339.74,329.76c-0.12-0.08,1.43-2.42,3.46-5.22c2.03-2.8,3.77-5,3.88-4.91
					c0.12,0.08-1.43,2.42-3.46,5.22C341.6,327.65,339.86,329.85,339.74,329.76z"/>
			</g>
			<g>
				<path style="fill:#FFFFFF;" d="M329.8,375.77c-0.06,0.03-0.52-0.73-1.17-2.01c-0.66-1.28-1.51-3.07-2.36-5.08
					c-0.86-2.02-1.55-3.87-2.02-5.23c-0.46-1.36-0.7-2.22-0.63-2.24c0.07-0.02,0.43,0.79,0.98,2.11c0.63,1.5,1.35,3.24,2.15,5.16
					c0.82,1.91,1.57,3.63,2.22,5.13C329.53,374.91,329.87,375.73,329.8,375.77z"/>
			</g>
			<g>
				<path style="fill:#FFFFFF;" d="M358.04,356.21c-0.03,0.14-2.75-0.27-6.07-0.91c-3.33-0.64-6-1.28-5.97-1.42
					c0.03-0.14,2.75,0.27,6.07,0.91C355.4,355.43,358.07,356.07,358.04,356.21z"/>
			</g>
			<g>
				<path style="fill:#FFFFFF;" d="M379.95,313.22c-0.11-0.1,2.49-3.06,5.79-6.63c3.3-3.56,6.07-6.37,6.17-6.27
					c0.11,0.1-2.49,3.06-5.79,6.63C382.81,310.51,380.05,313.32,379.95,313.22z"/>
			</g>
			<g>
				<path style="fill:#FFFFFF;" d="M401.98,370.55c-0.11,0.09-3.34-3.65-7.22-8.36c-3.88-4.71-6.93-8.6-6.82-8.69
					c0.11-0.09,3.34,3.65,7.22,8.36C399.04,366.57,402.09,370.46,401.98,370.55z"/>
			</g>
			<g>
				<path style="fill:#FFFFFF;" d="M265.2,346.12c0.07,0.14-2.88,1.64-6.1,4.11c-3.23,2.45-5.46,4.91-5.58,4.8
					c-0.05-0.04,0.44-0.71,1.36-1.7c0.91-0.98,2.27-2.26,3.9-3.51c1.63-1.24,3.23-2.21,4.42-2.84
					C264.39,346.36,265.17,346.06,265.2,346.12z"/>
			</g>
			<g>
				<path style="fill:#FFFFFF;" d="M273.44,324.02c0.12,0.08-0.93,1.87-2.35,4c-1.42,2.13-2.66,3.79-2.78,3.71
					c-0.12-0.08,0.93-1.87,2.35-4C272.07,325.6,273.32,323.94,273.44,324.02z"/>
			</g>
			<g>
				<path style="fill:#FFFFFF;" d="M292,345.72c-0.11,0.07-1.16-1.68-1.7-4.11c-0.56-2.42-0.37-4.45-0.24-4.44
					c0.16,0,0.21,1.97,0.75,4.32C291.33,343.85,292.14,345.65,292,345.72z"/>
			</g>
			<g>
				<path style="fill:#FFFFFF;" d="M294.75,276.8c0.02,0.14-1.7,0.51-3.85,0.81c-2.15,0.31-3.91,0.44-3.93,0.3
					c-0.02-0.14,1.7-0.51,3.85-0.81C292.97,276.79,294.73,276.66,294.75,276.8z"/>
			</g>
			<g>
				<path style="fill:#FFFFFF;" d="M308.69,252.07c0.07,0.13-1.44,1.1-3.37,2.17c-1.93,1.07-3.56,1.84-3.63,1.71
					c-0.07-0.13,1.44-1.1,3.37-2.17C307,252.71,308.62,251.95,308.69,252.07z"/>
			</g>
			<g>
				<path style="fill:#FFFFFF;" d="M347.9,262.52c-0.11,0.09-1.84-1.99-3.86-4.64c-2.02-2.65-3.56-4.86-3.44-4.95
					c0.11-0.09,1.84,1.99,3.86,4.64C346.47,260.21,348.02,262.43,347.9,262.52z"/>
			</g>
			<g>
				<path style="fill:#FFFFFF;" d="M397.67,287.38c-0.1,0.09-1.92-1.78-3.6-4.5c-1.7-2.72-2.57-5.17-2.45-5.22
					c0.14-0.06,1.22,2.27,2.89,4.95C396.18,285.29,397.79,287.28,397.67,287.38z"/>
			</g>
			<g>
				<path style="fill:#FFFFFF;" d="M416.67,293.64c0.13,0.06-0.79,2.38-2.06,5.17c-1.27,2.8-2.4,5.02-2.54,4.96
					c-0.13-0.06,0.79-2.38,2.06-5.17C415.4,295.8,416.54,293.58,416.67,293.64z"/>
			</g>
			<g>
				<path style="fill:#FFFFFF;" d="M419.33,267.71c-0.11,0.09-2.37-2.44-5.05-5.66c-2.68-3.22-4.76-5.91-4.65-6
					c0.11-0.09,2.37,2.44,5.05,5.66C417.35,264.94,419.44,267.62,419.33,267.71z"/>
			</g>
			<g>
				<path style="fill:#FFFFFF;" d="M390.31,246.65c-0.14,0.01-0.35-2.16-0.45-4.85c-0.11-2.68-0.07-4.86,0.07-4.87
					c0.14-0.01,0.35,2.16,0.45,4.85C390.49,244.47,390.46,246.65,390.31,246.65z"/>
			</g>
			<g>
				<path style="fill:#FFFFFF;" d="M413.97,245.34c0.02,0.14-2.75,0.63-6.17,1.09c-3.43,0.46-6.22,0.71-6.24,0.57
					c-0.02-0.14,2.74-0.63,6.17-1.09C411.15,245.45,413.95,245.2,413.97,245.34z"/>
			</g>
			<g>
				<path style="fill:#FFFFFF;" d="M451.23,272.71c-0.13,0.06-1.79-3.11-3.72-7.08c-1.92-3.97-3.38-7.25-3.25-7.31
					c0.13-0.06,1.79,3.11,3.72,7.08C449.9,269.37,451.36,272.65,451.23,272.71z"/>
			</g>
			<g>
				<path style="fill:#FFFFFF;" d="M444.95,296.36c-0.14-0.03,0.25-2.58,0.87-5.69c0.62-3.12,1.24-5.62,1.38-5.59
					c0.14,0.03-0.25,2.58-0.87,5.69C445.71,293.88,445.1,296.39,444.95,296.36z"/>
			</g>
			<g>
				<path style="fill:#FFFFFF;" d="M462.24,315c-0.14,0.05-1.46-3.39-2.97-7.68c-1.5-4.29-2.61-7.81-2.47-7.86
					c0.14-0.05,1.46,3.39,2.97,7.68C461.27,311.44,462.37,314.95,462.24,315z"/>
			</g>
			<g>
				<path style="fill:#FFFFFF;" d="M459.83,325.91c-0.03,0.13-2.42-0.37-5.05-1.81c-2.64-1.42-4.37-3.15-4.27-3.24
					c0.1-0.12,1.94,1.4,4.52,2.79C457.59,325.04,459.88,325.76,459.83,325.91z"/>
			</g>
			<g>
				<path style="fill:#FFFFFF;" d="M481.97,350.77c-0.13,0.06-0.93-1.46-1.79-3.39c-0.86-1.93-1.45-3.54-1.32-3.6
					c0.13-0.06,0.93,1.46,1.79,3.39C481.51,349.1,482.1,350.71,481.97,350.77z"/>
			</g>
			<g>
				<path style="fill:#FFFFFF;" d="M351.21,385.45c-0.14,0.02-0.49-1.97-0.78-4.43c-0.29-2.46-0.4-4.47-0.26-4.49
					c0.14-0.02,0.49,1.97,0.78,4.43C351.24,383.42,351.35,385.43,351.21,385.45z"/>
			</g>
			<g>
				<path style="fill:#FFFFFF;" d="M419.14,383.73c-0.14-0.03,0.15-1.97,0.65-4.33c0.5-2.36,1.02-4.25,1.16-4.22
					c0.14,0.03-0.15,1.97-0.65,4.33C419.8,381.87,419.28,383.76,419.14,383.73z"/>
			</g>
		</g>
	</g>
</g>
<g id="Speech_Bubble">
	<g>
		<g>
			<g>
				<g>
					<g>
						<g>
							<g>
								<g>
									<g>
										<path style="fill:#FAFAFA;" d="M432.16,185.44l8.78-15.48c-3.89-6.31-6.13-13.73-6.13-21.68
											c0-22.87,18.54-41.41,41.41-41.41c22.87,0,41.41,18.54,41.41,41.41c0,22.87-18.54,41.41-41.41,41.41
											c-9.55,0-18.34-3.24-25.34-8.67l0.01,0.02L432.16,185.44z"/>
									</g>
								</g>
							</g>
						</g>
						<g>
							<g>
								<g>
									<g>
										<g>
											<path style="fill:#263238;" d="M432.16,185.44c0.89-0.2,6.82-1.56,18.76-4.29l0.19-0.04l-0.12-0.16l-0.01-0.02
												l-0.18,0.18c2.36,1.83,5.19,3.63,8.52,5.14c3.33,1.48,7.15,2.68,11.36,3.24c2.1,0.27,4.3,0.44,6.56,0.33
												c1.13-0.06,2.28-0.09,3.44-0.19c1.15-0.17,2.32-0.35,3.5-0.53c4.69-0.93,9.48-2.71,13.96-5.48
												c4.47-2.77,8.61-6.52,11.93-11.13c3.31-4.61,5.82-10.07,7-16c1.16-5.93,1.07-12.28-0.49-18.43
												c-1.57-6.13-4.5-12.11-8.88-17.03l-1.69-1.86c-0.56-0.63-1.22-1.14-1.82-1.72c-0.63-0.54-1.2-1.16-1.88-1.64l-1.99-1.49
												c-0.64-0.52-1.35-0.94-2.06-1.36c-0.7-0.43-1.4-0.85-2.1-1.28c-0.74-0.36-1.47-0.71-2.2-1.07
												c-0.74-0.34-1.45-0.74-2.22-0.99c-6.02-2.39-12.43-3.3-18.57-2.85c-6.14,0.44-12.01,2.2-17.04,5.04
												c-5.05,2.81-9.31,6.57-12.6,10.76c-3.3,4.2-5.62,8.82-7.06,13.43c-1.43,4.63-1.82,9.22-1.8,13.47
												c0.12,4.26,0.9,8.19,2.03,11.63c1.13,3.45,2.62,6.42,4.15,8.91l0-0.12C435.3,179.83,432.59,184.68,432.16,185.44
												c0.44-0.76,3.21-5.57,8.89-15.42l0.04-0.06l-0.04-0.06c-1.51-2.49-2.97-5.45-4.08-8.88c-1.1-3.43-1.86-7.32-1.96-11.55
												c0-4.22,0.4-8.76,1.83-13.34c1.44-4.56,3.75-9.13,7.02-13.28c3.26-4.14,7.48-7.85,12.48-10.62
												c4.98-2.8,10.79-4.53,16.85-4.96c6.06-0.43,12.4,0.47,18.34,2.83c0.76,0.24,1.46,0.64,2.19,0.98
												c0.72,0.35,1.45,0.7,2.17,1.06c0.69,0.42,1.38,0.84,2.08,1.26c0.7,0.42,1.4,0.83,2.03,1.35l1.96,1.47
												c0.67,0.47,1.23,1.08,1.85,1.62c0.59,0.57,1.25,1.08,1.8,1.7l1.67,1.84c4.33,4.86,7.22,10.77,8.77,16.82
												c1.54,6.07,1.64,12.35,0.5,18.21c-1.16,5.86-3.63,11.27-6.9,15.82c-3.27,4.57-7.36,8.29-11.78,11.03
												c-4.42,2.76-9.16,4.53-13.8,5.46c-1.17,0.18-2.33,0.36-3.46,0.53c-1.15,0.1-2.29,0.13-3.4,0.2
												c-2.24,0.12-4.42-0.05-6.5-0.31c-4.18-0.54-7.97-1.72-11.28-3.17c-3.31-1.48-6.13-3.25-8.49-5.05l-0.77-0.59l0.59,0.77
												l0.01,0.02l0.07-0.2C438.96,183.79,433.05,185.23,432.16,185.44z"/>
										</g>
									</g>
								</g>
							</g>
						</g>
					</g>
				</g>
			</g>
		</g>
		<g>
			<g>
				<g>
					<g>
						<g>
							<g>
								<g>
									<path style="fill:#263238;" d="M487.4,146.55c0,2.23,1.81,4.05,4.05,4.05c2.24,0,4.05-1.81,4.05-4.05
										c0-2.23-1.81-4.05-4.05-4.05C489.21,142.5,487.4,144.32,487.4,146.55z"/>
								</g>
							</g>
						</g>
					</g>
				</g>
			</g>
			<g>
				<g>
					<g>
						<g>
							<g>
								<g>
									<path style="fill:#263238;" d="M471.21,146.55c0,2.23,1.81,4.05,4.05,4.05c2.24,0,4.05-1.81,4.05-4.05
										c0-2.23-1.81-4.05-4.05-4.05C473.02,142.5,471.21,144.32,471.21,146.55z"/>
								</g>
							</g>
						</g>
					</g>
				</g>
			</g>
			<g>
				<g>
					<g>
						<g>
							<g>
								<g>
									<path style="fill:#263238;" d="M455.06,144.53c-1.12,1.94-0.45,4.41,1.48,5.53c1.94,1.12,4.41,0.45,5.53-1.48
										c1.12-1.94,0.45-4.41-1.48-5.53C458.65,141.93,456.17,142.59,455.06,144.53z"/>
								</g>
							</g>
						</g>
					</g>
				</g>
			</g>
		</g>
	</g>
</g>
</svg>
